#N canvas 0 25 1440 788 12;
#X obj 548 111 r sensorValue;
#X obj 298 287 change;
#X obj 227 425 bng 19 250 50 0 empty empty empty 0 -10 0 12 #fcfcfc #000000 #000000;
#X obj 359 288 change;
#X obj 422 290 change;
#X obj 478 290 change;
#X obj 531 292 change;
#X obj 590 292 change;
#X obj 650 293 change;
#X obj 706 293 change;
#X obj 229 397 select 1;
#X obj 297 398 select 1;
#X obj 365 398 select 1;
#X obj 433 399 select 1;
#X obj 503 401 select 1;
#X obj 571 402 select 1;
#X obj 639 402 select 1;
#X obj 707 403 select 1;
#X obj 214 466 print 0:;
#X obj 283 472 bng 19 250 50 0 empty empty empty 0 -10 0 12 #fcfcfc #000000 #000000;
#X obj 381 457 bng 19 250 50 0 empty empty empty 0 -10 0 12 #fcfcfc #000000 #000000;
#X obj 434 458 bng 19 250 50 0 empty empty empty 0 -10 0 12 #fcfcfc #000000 #000000;
#X obj 505 457 bng 19 250 50 0 empty empty empty 0 -10 0 12 #fcfcfc #000000 #000000;
#X obj 574 453 bng 19 250 50 0 empty empty empty 0 -10 0 12 #fcfcfc #000000 #000000;
#X obj 295 537 print 1:;
#X obj 363 496 print 2:;
#X obj 643 460 bng 19 250 50 0 empty empty empty 0 -10 0 12 #fcfcfc #000000 #000000;
#X obj 711 461 bng 19 250 50 0 empty empty empty 0 -10 0 12 #fcfcfc #000000 #000000;
#X obj 452 513 print 3:;
#X obj 531 500 print 4:;
#X obj 604 500 print 5:;
#X obj 616 548 print 6:;
#X obj 695 511 print 7:;
#X obj 548 165 unpack f f f f f f f f f f f f, f 45;
#X obj 781 295 change;
#X obj 837 295 change;
#X obj 897 296 change;
#X obj 953 296 change;
#X obj 772 402 select 1;
#X obj 841 405 select 1;
#X obj 909 405 select 1;
#X obj 977 406 select 1;
#X obj 775 462 bng 19 250 50 0 empty empty empty 0 -10 0 12 #fcfcfc #000000 #000000;
#X obj 831 484 bng 19 250 50 0 empty empty empty 0 -10 0 12 #fcfcfc #000000 #000000;
#X obj 902 520 bng 19 250 50 0 empty empty empty 0 -10 0 12 #fcfcfc #000000 #000000;
#X obj 985 515 bng 19 250 50 0 empty empty empty 0 -10 0 12 #fcfcfc #000000 #000000;
#X obj 754 535 print 8:;
#X obj 857 551 print 9:;
#X obj 938 565 print 10:;
#X obj 1033 549 print 11:;
#X obj 287 333 > 30;
#X obj 333 334 > 30;
#X obj 402 334 > 30;
#X obj 456 335 > 30;
#X obj 522 338 > 30;
#X obj 593 339 > 30;
#X obj 642 339 > 30;
#X obj 716 339 > 30;
#X obj 772 341 > 30;
#X obj 840 342 > 30;
#X obj 889 342 > 30;
#X obj 963 342 > 30;
#X connect 0 0 33 0;
#X connect 1 0 50 0;
#X connect 2 0 18 0;
#X connect 3 0 51 0;
#X connect 4 0 52 0;
#X connect 5 0 53 0;
#X connect 6 0 54 0;
#X connect 7 0 55 0;
#X connect 8 0 56 0;
#X connect 9 0 57 0;
#X connect 10 0 2 0;
#X connect 11 0 19 0;
#X connect 12 0 20 0;
#X connect 13 0 21 0;
#X connect 14 0 22 0;
#X connect 15 0 23 0;
#X connect 16 0 26 0;
#X connect 17 0 27 0;
#X connect 19 0 24 0;
#X connect 20 0 25 0;
#X connect 21 0 28 0;
#X connect 22 0 29 0;
#X connect 23 0 30 0;
#X connect 26 0 31 0;
#X connect 27 0 32 0;
#X connect 33 0 1 0;
#X connect 33 1 3 0;
#X connect 33 2 4 0;
#X connect 33 3 5 0;
#X connect 33 4 6 0;
#X connect 33 5 7 0;
#X connect 33 6 8 0;
#X connect 33 7 9 0;
#X connect 33 8 34 0;
#X connect 33 9 35 0;
#X connect 33 10 36 0;
#X connect 33 11 37 0;
#X connect 34 0 58 0;
#X connect 35 0 59 0;
#X connect 36 0 60 0;
#X connect 37 0 61 0;
#X connect 38 0 42 0;
#X connect 39 0 43 0;
#X connect 40 0 44 0;
#X connect 41 0 45 0;
#X connect 42 0 46 0;
#X connect 43 0 47 0;
#X connect 44 0 48 0;
#X connect 45 0 49 0;
#X connect 50 0 10 0;
#X connect 51 0 11 0;
#X connect 52 0 12 0;
#X connect 53 0 13 0;
#X connect 54 0 14 0;
#X connect 55 0 15 0;
#X connect 56 0 16 0;
#X connect 57 0 17 0;
#X connect 58 0 38 0;
#X connect 59 0 39 0;
#X connect 60 0 40 0;
#X connect 61 0 41 0;
