#N canvas 0 25 1440 789 12;
#X obj 330 257 phasor~;
#N canvas 0 0 1440 872 env 0;
#X obj 351 415 vline~;
#X obj 349 450 *~;
#X text 442 367 goes to zero \, time to decay \, delay;
#X obj 304 260 inlet;
#X obj 1074 165 bng 19 250 50 0 empty empty empty 0 -10 0 12 #fcfcfc #000000 #000000;
#X msg 1031 222 1 3;
#X obj 1121 209 del 50;
#X obj 1121 233 pack 0 500;
#X floatatom 1198 195 5 0 0 0 - - - 0;
#X text 1243 190 decay time;
#X floatatom 1176 273 5 0 0 0 - - - 0;
#X listbox 1240 272 20 0 0 0 - - - 0;
#X obj 1076 273 line~;
#X obj 1076 297 *~;
#X obj 1076 321 *~;
#X obj 348 542 outlet~;
#X text 1017 106 another way of doing it without "vline~" object;
#X obj 349 484 *~;
#X text 398 463 square the output;
#X msg 349 388 1 3 \, 0 \$1 53;
#X obj 387 266 inlet;
#X obj 357 315 f 90;
#X connect 0 0 1 1;
#X connect 0 0 1 0;
#X connect 1 0 17 0;
#X connect 1 0 17 1;
#X connect 3 0 21 0;
#X connect 4 0 5 0;
#X connect 4 0 6 0;
#X connect 5 0 12 0;
#X connect 6 0 7 0;
#X connect 7 0 10 0;
#X connect 7 0 11 0;
#X connect 7 0 12 0;
#X connect 8 0 7 1;
#X connect 12 0 13 0;
#X connect 12 0 13 1;
#X connect 13 0 14 0;
#X connect 13 0 14 1;
#X connect 17 0 15 0;
#X connect 19 0 0 0;
#X connect 20 0 21 1;
#X connect 21 0 19 0;
#X restore 887 284 pd env;
#X obj 333 336 vcf~ 1, f 32;
#X floatatom 931 249 5 0 0 0 - - - 0;
#X text 983 249 decay;
#X floatatom 380 295 5 0 0 1 cutOff\ freq - - 0;
#X floatatom 551 300 5 0 0 1 resonance\ (Q) - - 0;
#X text 688 297 filter sharpness;
#X obj 596 411 *~;
#X floatatom 213 190 5 0 0 0 - - - 0;
#X obj 214 219 mtof;
#N canvas 0 28 1440 872 env 0;
#X obj 351 415 vline~;
#X obj 349 450 *~;
#X text 442 367 goes to zero \, time to decay \, delay;
#X obj 304 260 inlet;
#X obj 1074 165 bng 19 250 50 0 empty empty empty 0 -10 0 12 #fcfcfc #000000 #000000;
#X msg 1031 222 1 3;
#X obj 1121 209 del 50;
#X obj 1121 233 pack 0 500;
#X floatatom 1198 195 5 0 0 0 - - - 0;
#X text 1243 190 decay time;
#X floatatom 1176 273 5 0 0 0 - - - 0;
#X listbox 1240 272 20 0 0 0 - - - 0;
#X obj 1076 273 line~;
#X obj 1076 297 *~;
#X obj 1076 321 *~;
#X obj 348 542 outlet~;
#X text 1017 106 another way of doing it without "vline~" object;
#X obj 349 484 *~;
#X text 398 463 square the output;
#X msg 349 388 1 3 \, 0 \$1 53;
#X obj 387 266 inlet;
#X obj 357 315 f 90;
#X connect 0 0 1 1;
#X connect 0 0 1 0;
#X connect 1 0 17 0;
#X connect 1 0 17 1;
#X connect 3 0 21 0;
#X connect 4 0 5 0;
#X connect 4 0 6 0;
#X connect 5 0 12 0;
#X connect 6 0 7 0;
#X connect 7 0 10 0;
#X connect 7 0 11 0;
#X connect 7 0 12 0;
#X connect 8 0 7 1;
#X connect 12 0 13 0;
#X connect 12 0 13 1;
#X connect 13 0 14 0;
#X connect 13 0 14 1;
#X connect 17 0 15 0;
#X connect 19 0 0 0;
#X connect 20 0 21 1;
#X connect 21 0 19 0;
#X restore 428 144 pd env;
#X floatatom 470 117 5 0 0 0 - - - 0;
#X text 472 35 filter decay;
#X text 509 170 scale volume env (0-1) up because freq go from 20-20000, f 21;
#X obj 446 191 *~ 1000;
#X floatatom 610 103 5 0 0 0 - - - 0;
#X text 104 202 41 or 29;
#X text 106 222 F2 or F1;
#X text 17 259 they say Fmajor is the best for acid bass;
#X text 27 289 actually also people say between 40-50hz which means keys between 28 and 31, f 36;
#X obj 611 128 * 10;
#X floatatom 1057 489 5 0 0 0 - - - 0;
#X obj 1057 541 line~;
#X msg 1057 512 \$1 500;
#X obj 769 671 *~;
#X obj 201 136 loadbang;
#X msg 201 160 29;
#X obj 1062 442 inlet;
#X text 1118 465 volume control;
#X obj 372 45 inlet;
#X obj 471 53 loadbang;
#X msg 471 77 600;
#X obj 552 249 loadbang;
#X msg 552 273 6;
#X obj 261 29 inlet;
#X obj 621 48 inlet;
#X text 664 45 filter;
#X obj 762 720 outlet~;
#X connect 0 0 2 0;
#X connect 1 0 8 1;
#X connect 2 1 8 0;
#X connect 3 0 1 1;
#X connect 5 0 2 1;
#X connect 6 0 2 2;
#X connect 8 0 25 0;
#X connect 9 0 10 0;
#X connect 10 0 0 0;
#X connect 11 0 15 0;
#X connect 12 0 11 1;
#X connect 15 0 2 1;
#X connect 16 0 21 0;
#X connect 21 0 15 1;
#X connect 22 0 24 0;
#X connect 23 0 25 1;
#X connect 24 0 23 0;
#X connect 25 0 38 0;
#X connect 26 0 27 0;
#X connect 27 0 9 0;
#X connect 28 0 22 0;
#X connect 30 0 3 0;
#X connect 31 0 32 0;
#X connect 32 0 12 0;
#X connect 33 0 34 0;
#X connect 34 0 6 0;
#X connect 35 0 11 0;
#X connect 35 0 1 0;
#X connect 36 0 16 0;
