#N canvas 0 25 1440 789 12;
#X obj 460 316 noise~;
#X obj 461 385 lop~;
#X obj 461 350 hip~;
#X text 672 341 creats bandwith filter;
#N canvas 0 28 1440 872 multi-env 0;
#X obj 66 67 inlet;
#N canvas 931 99 450 300 vol_env 0;
#X obj 87 83 inlet;
#X obj 87 107 f 250;
#X msg 87 131 1 0.2 \, 0 \$1 0.2;
#X text 208 123 goes to pick very fast (0.2ms) then decays at a specified time, f 32;
#X obj 87 155 vline~;
#X obj 87 179 *~;
#X obj 87 203 *~;
#X text 129 182 we square the output twice so we get to steep the decay curve, f 32;
#X obj 87 227 outlet~;
#X obj 155 84 inlet;
#X text 202 86 decay;
#X connect 0 0 1 0;
#X connect 1 0 2 0;
#X connect 2 0 4 0;
#X connect 4 0 5 0;
#X connect 4 0 5 1;
#X connect 5 0 6 0;
#X connect 5 0 6 1;
#X connect 6 0 8 0;
#X connect 9 0 1 1;
#X restore 67 228 pd vol_env;
#X obj 70 295 *~ 1;
#X obj 70 319 outlet~;
#X obj 315 25 inlet;
#N canvas 931 99 450 300 vol_env 0;
#X obj 87 83 inlet;
#X obj 87 107 f 250;
#X msg 87 131 1 0.2 \, 0 \$1 0.2;
#X text 208 123 goes to pick very fast (0.2ms) then decays at a specified time, f 32;
#X obj 87 155 vline~;
#X obj 87 179 *~;
#X obj 87 203 *~;
#X text 129 182 we square the output twice so we get to steep the decay curve, f 32;
#X obj 87 227 outlet~;
#X obj 155 84 inlet;
#X text 202 86 decay;
#X connect 0 0 1 0;
#X connect 1 0 2 0;
#X connect 2 0 4 0;
#X connect 4 0 5 0;
#X connect 4 0 5 1;
#X connect 5 0 6 0;
#X connect 5 0 6 1;
#X connect 6 0 8 0;
#X connect 9 0 1 1;
#X restore 146 230 pd vol_env;
#N canvas 931 99 450 300 vol_env 0;
#X obj 87 83 inlet;
#X obj 87 107 f 250;
#X msg 87 131 1 0.2 \, 0 \$1 0.2;
#X text 208 123 goes to pick very fast (0.2ms) then decays at a specified time, f 32;
#X obj 87 155 vline~;
#X obj 87 179 *~;
#X obj 87 203 *~;
#X text 129 182 we square the output twice so we get to steep the decay curve, f 32;
#X obj 87 227 outlet~;
#X obj 155 84 inlet;
#X text 202 86 decay;
#X connect 0 0 1 0;
#X connect 1 0 2 0;
#X connect 2 0 4 0;
#X connect 4 0 5 0;
#X connect 4 0 5 1;
#X connect 5 0 6 0;
#X connect 5 0 6 1;
#X connect 6 0 8 0;
#X connect 9 0 1 1;
#X restore 227 230 pd vol_env;
#N canvas 0 28 1440 872 vol_env 0;
#X obj 87 83 inlet;
#X obj 87 107 f 250;
#X msg 87 131 1 0.2 \, 0 \$1 0.2;
#X text 208 123 goes to pick very fast (0.2ms) then decays at a specified time, f 32;
#X obj 87 155 vline~;
#X obj 87 179 *~;
#X obj 87 203 *~;
#X text 129 182 we square the output twice so we get to steep the decay curve, f 32;
#X obj 87 227 outlet~;
#X obj 155 84 inlet;
#X text 202 86 decay;
#X connect 0 0 1 0;
#X connect 1 0 2 0;
#X connect 2 0 4 0;
#X connect 4 0 5 0;
#X connect 4 0 5 1;
#X connect 5 0 6 0;
#X connect 5 0 6 1;
#X connect 6 0 8 0;
#X connect 9 0 1 1;
#X restore 313 231 pd vol_env;
#X text 364 53 chooses the delay time;
#X obj 144 98 del 20;
#X obj 232 131 del 20;
#X obj 314 193 del 20;
#X floatatom 355 89 5 0 0 0 - - - 0;
#X obj 377 138 * 5;
#X text 406 139 extrand last decay longer;
#X obj 545 64 t b f;
#X obj 546 34 inlet;
#X text 596 65 decay;
#X connect 0 0 1 0;
#X connect 0 0 9 0;
#X connect 1 0 2 0;
#X connect 2 0 3 0;
#X connect 4 0 9 1;
#X connect 4 0 10 1;
#X connect 4 0 11 1;
#X connect 4 0 12 0;
#X connect 5 0 2 0;
#X connect 6 0 2 0;
#X connect 7 0 2 0;
#X connect 9 0 5 0;
#X connect 9 0 10 0;
#X connect 10 0 6 0;
#X connect 10 0 11 0;
#X connect 11 0 7 0;
#X connect 12 0 1 1;
#X connect 12 0 5 1;
#X connect 12 0 6 1;
#X connect 12 0 13 0;
#X connect 13 0 7 1;
#X connect 15 0 13 0;
#X connect 15 1 13 1;
#X connect 16 0 15 0;
#X restore 804 497 pd multi-env;
#X obj 666 688 *~;
#X obj 374 192 inlet;
#X obj 774 403 inlet;
#X obj 721 799 outlet~;
#X obj 981 150 inlet;
#X obj 611 339 + 350;
#X text 1036 152 filter;
#X text 825 280 max i take this one out;
#X text 880 300 the delay;
#X text 773 368 decay;
#X floatatom 1087 534 5 0 0 0 - - - 0;
#X obj 1087 586 line~;
#X msg 1087 557 \$1 500;
#X obj 1085 498 inlet;
#X text 1150 515 volume envolope;
#X obj 718 738 *~;
#X text 1083 432 or i just dont put this one \, cause if i want to do this louder or lower i just increase decrease the others accordignly, f 32;
#X obj 881 325 loadbang;
#X msg 881 349 10;
#X text 1002 279 ---> i took it out \, not enough pot !;
#X connect 0 0 2 0;
#X connect 1 0 5 0;
#X connect 2 0 1 0;
#X connect 4 0 5 1;
#X connect 5 0 20 0;
#X connect 6 0 4 0;
#X connect 7 0 4 2;
#X connect 9 0 2 1;
#X connect 9 0 10 0;
#X connect 10 0 1 1;
#X connect 15 0 17 0;
#X connect 16 0 20 1;
#X connect 17 0 16 0;
#X connect 18 0 15 0;
#X connect 20 0 8 0;
#X connect 22 0 23 0;
#X connect 23 0 4 1;
