#N canvas 0 28 1440 872 12;
#X obj 325 9 tgl 19 0 empty empty empty 0 -10 0 12 #fcfcfc #000000 #000000 0 1;
#X obj 432 336 osc~;
#X obj 603 424 *~;
#X obj 362 263 line~;
#X obj 520 82 bng 19 250 50 0 empty empty empty 0 -10 0 12 #fcfcfc #000000 #000000;
#X obj 542 288 line~;
#X obj 682 338 osc~;
#X obj 658 272 line~;
#X obj 770 137 bng 19 250 50 0 empty empty empty 0 -10 0 12 #fcfcfc #000000 #000000;
#X obj 893 285 line~;
#X msg 893 252 1 0 \, 0 30;
#X msg 463 298 0.25;
#X msg 713 300 0.25;
#X obj 466 418 *~;
#X msg 360 215 1800 0 \, 1600 1;
#X msg 547 248 1 0 \, 0 20;
#X msg 656 224 1800 0 \, 1600 1;
#X obj 326 40 metro 450;
#X obj 455 28 inlet;
#X floatatom 1022 340 5 0 0 0 - - - 0;
#X obj 1022 392 line~;
#X msg 1022 363 \$1 500;
#X obj 552 570 *~;
#X obj 1019 284 inlet;
#X obj 586 674 outlet~;
#X connect 0 0 17 0;
#X connect 1 0 13 0;
#X connect 2 0 22 0;
#X connect 3 0 1 0;
#X connect 4 0 14 0;
#X connect 4 0 8 0;
#X connect 4 0 11 0;
#X connect 4 0 12 0;
#X connect 4 0 15 0;
#X connect 5 0 13 1;
#X connect 6 0 2 0;
#X connect 7 0 6 0;
#X connect 8 0 16 0;
#X connect 8 0 10 0;
#X connect 9 0 2 1;
#X connect 10 0 9 0;
#X connect 11 0 1 1;
#X connect 12 0 6 1;
#X connect 13 0 22 0;
#X connect 14 0 3 0;
#X connect 15 0 5 0;
#X connect 16 0 7 0;
#X connect 18 0 4 0;
#X connect 19 0 21 0;
#X connect 20 0 22 1;
#X connect 21 0 20 0;
#X connect 22 0 24 0;
#X connect 23 0 19 0;
