#N canvas 0 28 1440 872 12;
#X obj 75 714 unpack 0 0;
#X obj 425 728 unpack 0 0;
#X obj 772 697 unpack 0 0;
#X obj 1082 716 unpack 0 0;
#X obj 197 717 unpack 0 0;
#X obj 533 725 unpack 0 0;
#X obj 856 696 unpack 0 0;
#X obj 1268 711 unpack 0 0;
#X obj 77 613 spigot;
#X obj 131 585 tgl 19 0 empty empty empty 0 -10 0 12 #fcfcfc #000000 #000000 0 1;
#X obj 201 613 spigot;
#X obj 251 586 tgl 19 0 empty empty empty 0 -10 0 12 #fcfcfc #000000 #000000 0 1;
#X obj 425 627 spigot;
#X obj 479 599 tgl 19 0 empty empty empty 0 -10 0 12 #fcfcfc #000000 #000000 0 1;
#X obj 549 627 spigot;
#X obj 599 600 tgl 19 0 empty empty empty 0 -10 0 12 #fcfcfc #000000 #000000 0 1;
#X obj 768 642 spigot;
#X obj 822 614 tgl 19 0 empty empty empty 0 -10 0 12 #fcfcfc #000000 #000000 0 1;
#X obj 892 642 spigot;
#X obj 942 615 tgl 19 0 empty empty empty 0 -10 0 12 #fcfcfc #000000 #000000 0 1;
#X obj 1081 626 spigot;
#X obj 1135 598 tgl 19 0 empty empty empty 0 -10 0 12 #fcfcfc #000000 #000000 0 1;
#X obj 1258 625 spigot;
#X obj 1308 598 tgl 19 0 empty empty empty 0 -10 0 12 #fcfcfc #000000 #000000 0 1;
#X obj 959 662 bng 19 250 50 0 empty empty empty 0 -10 0 12 #fcfcfc #000000 #000000;
#X obj 729 666 bng 19 250 50 0 empty empty empty 0 -10 0 12 #fcfcfc #000000 #000000;
#X obj 1081 650 bng 19 250 50 0 empty empty empty 0 -10 0 12 #fcfcfc #000000 #000000;
#X obj 1230 650 bng 19 250 50 0 empty empty empty 0 -10 0 12 #fcfcfc #000000 #000000;
#X obj 549 651 bng 19 250 50 0 empty empty empty 0 -10 0 12 #fcfcfc #000000 #000000;
#X obj 382 648 bng 19 250 50 0 empty empty empty 0 -10 0 12 #fcfcfc #000000 #000000;
#X obj 166 635 bng 19 250 50 0 empty empty empty 0 -10 0 12 #fcfcfc #000000 #000000;
#X obj 26 634 bng 19 250 50 0 empty empty empty 0 -10 0 12 #fcfcfc #000000 #000000;
#X obj 39 498 del 5;
#X obj 78 530 gatemode0;
#X obj 206 531 gatemode1;
#X obj 417 540 gatemode0;
#X obj 563 546 gatemode1;
#X obj 764 558 gatemode0;
#X obj 894 558 gatemode1;
#X obj 1059 539 gatemode0;
#X obj 1263 532 gatemode1;
#X msg 77 677 10 2000;
#X msg 428 684 30 1000;
#X obj 206 492 del 5;
#X obj 790 525 del 5;
#X obj 918 525 del 5;
#X obj 441 505 del 5;
#X obj 583 506 del 5;
#X obj 1101 504 del 5;
#X obj 1290 502 del 5;
#X obj 46 407 r mode_change;
#X obj 212 402 r mode_change;
#X obj 439 418 r mode_change;
#X obj 578 416 r mode_change;
#X obj 781 430 r mode_change;
#X obj 947 425 r mode_change;
#X obj 1130 409 r mode_change;
#X obj 1291 409 r mode_change;
#X msg 771 672 100 1000;
#X obj 29 21 cnv 19 200 50 empty empty Player\ 2 20 12 0 12 #e3c6ff #9c00ff 0;
#X text 46 42 For Potentiometer 1:;
#X obj 80 465 r row_change_ply2;
#X obj 250 463 r row_change_ply2;
#X obj 465 469 r row_change_ply2;
#X obj 602 461 r row_change_ply2;
#X obj 793 490 r row_change_ply2;
#X obj 963 488 r row_change_ply2;
#X obj 1134 462 r row_change_ply2;
#X obj 1304 468 r row_change_ply2;
#X obj 1310 572 r gate4_Ply2;
#X obj 1150 570 r gate4_Ply2;
#X obj 944 589 r gate3_Ply2;
#X obj 824 588 r gate3_Ply2;
#X obj 601 574 r gate2_Ply2;
#X obj 481 573 r gate2_Ply2;
#X obj 253 560 r gate1_Ply2;
#X obj 133 559 r gate1_Ply2;
#X msg 196 669 30 1000;
#X msg 533 690 10 1000;
#X msg 1082 691 100 1000;
#X msg 856 672 10 80;
#X msg 1268 686 100 1000;
#X obj 54 766 s value1_pot1_ply2;
#X obj 204 761 s value2_pot1_ply2;
#X obj 425 774 s value1_pot1_ply2;
#X obj 571 774 s value2_pot1_ply2;
#X obj 716 748 s value1_pot1_ply2;
#X obj 862 748 s value2_pot1_ply2;
#X obj 1088 774 s value1_pot1_ply2;
#X obj 1241 772 s value2_pot1_ply2;
#X text 796 336 ---> will this work as float or int ??, f 18;
#X floatatom 696 133 5 0 0 0 - - - 0;
#X floatatom 665 251 5 0 0 0 - - - 0;
#X floatatom 662 376 5 0 0 0 - - - 0;
#X obj 717 340 clip 0 1;
#X obj 712 224 *;
#X obj 714 269 +;
#X obj 899 67 t b f;
#X obj 695 104 inlet;
#X floatatom 659 299 5 0 0 0 - - - 0;
#X obj 720 388 outlet;
#X obj 789 161 -;
#X floatatom 815 219 5 0 0 0 - - - 0;
#X obj 872 196 bng 19 250 50 0 empty empty empty 0 -10 0 12 #fcfcfc #000000 #000000;
#X obj 795 109 f;
#X obj 886 39 r value1_pot1_ply2;
#X obj 725 66 r value2_pot1_ply2;
#X obj 835 269 r value2_pot1_ply2;
#X obj 750 301 r value1_pot1_ply2;
#X obj 746 183 t b f;
#X connect 0 0 82 0;
#X connect 0 1 83 0;
#X connect 1 0 84 0;
#X connect 1 1 85 0;
#X connect 2 0 86 0;
#X connect 2 1 87 0;
#X connect 3 0 88 0;
#X connect 3 1 89 0;
#X connect 4 0 82 0;
#X connect 4 1 83 0;
#X connect 5 0 84 0;
#X connect 5 1 85 0;
#X connect 6 0 86 0;
#X connect 6 1 87 0;
#X connect 7 0 88 0;
#X connect 7 1 89 0;
#X connect 8 0 31 0;
#X connect 8 0 41 0;
#X connect 9 0 8 1;
#X connect 10 0 30 0;
#X connect 10 0 77 0;
#X connect 11 0 10 1;
#X connect 12 0 29 0;
#X connect 12 0 42 0;
#X connect 13 0 12 1;
#X connect 14 0 78 0;
#X connect 14 0 28 0;
#X connect 15 0 14 1;
#X connect 16 0 58 0;
#X connect 16 0 25 0;
#X connect 17 0 16 1;
#X connect 18 0 80 0;
#X connect 18 0 24 0;
#X connect 19 0 18 1;
#X connect 20 0 79 0;
#X connect 20 0 26 0;
#X connect 21 0 20 1;
#X connect 22 0 27 0;
#X connect 22 0 81 0;
#X connect 23 0 22 1;
#X connect 32 0 33 0;
#X connect 33 0 8 0;
#X connect 34 0 10 0;
#X connect 35 0 12 0;
#X connect 36 0 14 0;
#X connect 37 0 16 0;
#X connect 38 0 18 0;
#X connect 39 0 20 0;
#X connect 40 0 22 0;
#X connect 41 0 0 0;
#X connect 42 0 1 0;
#X connect 43 0 34 0;
#X connect 44 0 37 0;
#X connect 45 0 38 0;
#X connect 46 0 35 0;
#X connect 47 0 36 0;
#X connect 48 0 39 0;
#X connect 49 0 40 0;
#X connect 50 0 32 0;
#X connect 51 0 43 0;
#X connect 52 0 46 0;
#X connect 53 0 47 0;
#X connect 54 0 44 0;
#X connect 55 0 45 0;
#X connect 56 0 48 0;
#X connect 57 0 49 0;
#X connect 58 0 2 0;
#X connect 61 0 32 0;
#X connect 62 0 43 0;
#X connect 63 0 46 0;
#X connect 64 0 47 0;
#X connect 65 0 44 0;
#X connect 66 0 45 0;
#X connect 67 0 48 0;
#X connect 68 0 49 0;
#X connect 69 0 23 0;
#X connect 70 0 21 0;
#X connect 71 0 19 0;
#X connect 72 0 17 0;
#X connect 73 0 15 0;
#X connect 74 0 13 0;
#X connect 75 0 11 0;
#X connect 76 0 9 0;
#X connect 77 0 4 0;
#X connect 78 0 5 0;
#X connect 79 0 3 0;
#X connect 80 0 6 0;
#X connect 81 0 7 0;
#X connect 91 0 95 0;
#X connect 94 0 93 0;
#X connect 94 0 100 0;
#X connect 95 0 92 0;
#X connect 95 0 96 0;
#X connect 96 0 94 0;
#X connect 96 0 99 0;
#X connect 97 0 104 0;
#X connect 97 1 96 1;
#X connect 97 1 101 1;
#X connect 98 0 91 0;
#X connect 101 0 102 0;
#X connect 101 0 103 0;
#X connect 101 0 109 0;
#X connect 104 0 101 0;
#X connect 105 0 97 0;
#X connect 106 0 104 1;
#X connect 107 0 94 2;
#X connect 108 0 94 1;
#X connect 109 0 95 0;
#X connect 109 1 95 1;
