#N canvas 0 28 1440 872 12;
#X obj 108 731 unpack 0 0;
#X obj 436 729 unpack 0 0;
#X obj 774 678 unpack 0 0;
#X obj 1115 712 unpack 0 0;
#X obj 230 734 unpack 0 0;
#X obj 858 677 unpack 0 0;
#X obj 110 630 spigot;
#X obj 164 602 tgl 19 0 empty empty empty 0 -10 0 12 #fcfcfc #000000 #000000 0 1;
#X obj 234 630 spigot;
#X obj 284 603 tgl 19 0 empty empty empty 0 -10 0 12 #fcfcfc #000000 #000000 0 1;
#X obj 436 628 spigot;
#X obj 490 600 tgl 19 0 empty empty empty 0 -10 0 12 #fcfcfc #000000 #000000 0 1;
#X obj 770 623 spigot;
#X obj 824 595 tgl 19 0 empty empty empty 0 -10 0 12 #fcfcfc #000000 #000000 0 1;
#X obj 894 623 spigot;
#X obj 944 596 tgl 19 0 empty empty empty 0 -10 0 12 #fcfcfc #000000 #000000 0 1;
#X obj 1114 622 spigot;
#X obj 1168 594 tgl 19 0 empty empty empty 0 -10 0 12 #fcfcfc #000000 #000000 0 1;
#X obj 953 652 bng 19 250 50 0 empty empty empty 0 -10 0 12 #fcfcfc #000000 #000000;
#X obj 731 647 bng 19 250 50 0 empty empty empty 0 -10 0 12 #fcfcfc #000000 #000000;
#X obj 1078 646 bng 19 250 50 0 empty empty empty 0 -10 0 12 #fcfcfc #000000 #000000;
#X obj 393 649 bng 19 250 50 0 empty empty empty 0 -10 0 12 #fcfcfc #000000 #000000;
#X obj 199 652 bng 19 250 50 0 empty empty empty 0 -10 0 12 #fcfcfc #000000 #000000;
#X obj 59 651 bng 19 250 50 0 empty empty empty 0 -10 0 12 #fcfcfc #000000 #000000;
#X obj 72 515 del 5;
#X obj 111 547 gatemode0;
#X obj 239 548 gatemode1;
#X obj 428 541 gatemode0;
#X obj 766 539 gatemode0;
#X obj 896 539 gatemode1;
#X obj 1092 535 gatemode0;
#X text 652 307 ---> will this work as float or int ??, f 18;
#X floatatom 552 104 5 0 0 0 - - - 0;
#X floatatom 521 222 5 0 0 0 - - - 0;
#X floatatom 518 347 5 0 0 0 - - - 0;
#X obj 573 311 clip 0 1;
#X obj 568 195 *;
#X obj 570 240 +;
#X obj 755 38 t b f;
#X obj 551 75 inlet;
#X floatatom 515 270 5 0 0 0 - - - 0;
#X obj 576 359 outlet;
#X obj 645 132 -;
#X floatatom 671 190 5 0 0 0 - - - 0;
#X obj 728 167 bng 19 250 50 0 empty empty empty 0 -10 0 12 #fcfcfc #000000 #000000;
#X obj 651 80 f;
#X obj 239 509 del 5;
#X obj 792 506 del 5;
#X obj 920 506 del 5;
#X obj 452 506 del 5;
#X obj 1134 500 del 5;
#X obj 79 424 r mode_change;
#X obj 245 419 r mode_change;
#X obj 450 419 r mode_change;
#X obj 783 411 r mode_change;
#X obj 949 406 r mode_change;
#X obj 1154 405 r mode_change;
#X obj 166 576 r gate1_Ply1;
#X obj 286 577 r gate1_Ply1;
#X obj 492 574 r gate2_Ply1;
#X obj 826 569 r gate3_Ply1;
#X obj 946 570 r gate3_Ply1;
#X obj 1170 568 r gate4_Ply1;
#X obj 113 482 r row_change_ply1;
#X obj 283 480 r row_change_ply1;
#X obj 476 470 r row_change_ply1;
#X obj 795 471 r row_change_ply1;
#X obj 965 469 r row_change_ply1;
#X obj 1151 458 r row_change_ply1;
#X msg 110 694 0.1 3;
#X msg 247 686 0.1 3;
#X msg 448 685 500 10000;
#X msg 773 653 2000 8000;
#X msg 858 653 2000 8000;
#X obj 40 51 cnv 19 200 50 empty empty Player\ 1 20 12 0 12 #ffe3c6 #ff8300 0;
#X text 57 72 For Potentiometer 2:;
#X msg 1115 687 200 2000;
#X obj 66 783 s value1_pot2_ply1;
#X obj 237 778 s value2_pot2_ply1;
#X obj 436 775 s value1_pot2_ply1;
#X obj 568 775 s value2_pot2_ply1;
#X obj 771 730 s value1_pot2_ply1;
#X obj 911 731 s value2_pot2_ply1;
#X obj 1121 770 s value1_pot2_ply1;
#X obj 1225 747 s value2_pot2_ply1;
#X obj 606 272 r value1_pot2_ply1;
#X obj 749 276 r value2_pot2_ply1;
#X obj 600 34 r value2_pot2_ply1;
#X obj 751 10 r value1_pot2_ply1;
#X obj 603 156 t b f;
#X connect 0 0 77 0;
#X connect 0 1 78 0;
#X connect 1 0 79 0;
#X connect 1 1 80 0;
#X connect 2 0 81 0;
#X connect 2 1 82 0;
#X connect 3 0 83 0;
#X connect 3 1 84 0;
#X connect 4 0 77 0;
#X connect 4 1 78 0;
#X connect 5 0 81 0;
#X connect 5 1 82 0;
#X connect 6 0 23 0;
#X connect 6 0 69 0;
#X connect 7 0 6 1;
#X connect 8 0 22 0;
#X connect 8 0 70 0;
#X connect 9 0 8 1;
#X connect 10 0 21 0;
#X connect 10 0 71 0;
#X connect 11 0 10 1;
#X connect 12 0 72 0;
#X connect 12 0 19 0;
#X connect 13 0 12 1;
#X connect 14 0 73 0;
#X connect 14 0 18 0;
#X connect 15 0 14 1;
#X connect 16 0 76 0;
#X connect 16 0 20 0;
#X connect 17 0 16 1;
#X connect 24 0 25 0;
#X connect 25 0 6 0;
#X connect 26 0 8 0;
#X connect 27 0 10 0;
#X connect 28 0 12 0;
#X connect 29 0 14 0;
#X connect 30 0 16 0;
#X connect 32 0 36 0;
#X connect 35 0 34 0;
#X connect 35 0 41 0;
#X connect 36 0 33 0;
#X connect 36 0 37 0;
#X connect 37 0 35 0;
#X connect 37 0 40 0;
#X connect 38 0 45 0;
#X connect 38 1 37 1;
#X connect 38 1 42 1;
#X connect 39 0 32 0;
#X connect 42 0 43 0;
#X connect 42 0 44 0;
#X connect 42 0 89 0;
#X connect 45 0 42 0;
#X connect 46 0 26 0;
#X connect 47 0 28 0;
#X connect 48 0 29 0;
#X connect 49 0 27 0;
#X connect 50 0 30 0;
#X connect 51 0 24 0;
#X connect 52 0 46 0;
#X connect 53 0 49 0;
#X connect 54 0 47 0;
#X connect 55 0 48 0;
#X connect 56 0 50 0;
#X connect 57 0 7 0;
#X connect 58 0 9 0;
#X connect 59 0 11 0;
#X connect 60 0 13 0;
#X connect 61 0 15 0;
#X connect 62 0 17 0;
#X connect 63 0 24 0;
#X connect 64 0 46 0;
#X connect 65 0 49 0;
#X connect 66 0 47 0;
#X connect 67 0 48 0;
#X connect 68 0 50 0;
#X connect 69 0 0 0;
#X connect 70 0 4 0;
#X connect 71 0 1 0;
#X connect 72 0 2 0;
#X connect 73 0 5 0;
#X connect 76 0 3 0;
#X connect 85 0 35 1;
#X connect 86 0 35 2;
#X connect 87 0 45 1;
#X connect 88 0 38 0;
#X connect 89 0 36 0;
#X connect 89 1 36 1;
