#N canvas 0 28 1440 872 12;
#X obj 77 762 unpack 0 0;
#X obj 427 776 unpack 0 0;
#X obj 774 745 unpack 0 0;
#X obj 199 765 unpack 0 0;
#X obj 535 773 unpack 0 0;
#X obj 858 744 unpack 0 0;
#X obj 1270 759 unpack 0 0;
#X obj 79 661 spigot;
#X obj 133 633 tgl 19 0 empty empty empty 0 -10 0 12 #fcfcfc #000000 #000000 0 1;
#X obj 203 661 spigot;
#X obj 253 634 tgl 19 0 empty empty empty 0 -10 0 12 #fcfcfc #000000 #000000 0 1;
#X obj 427 675 spigot;
#X obj 481 647 tgl 19 0 empty empty empty 0 -10 0 12 #fcfcfc #000000 #000000 0 1;
#X obj 551 675 spigot;
#X obj 601 648 tgl 19 0 empty empty empty 0 -10 0 12 #fcfcfc #000000 #000000 0 1;
#X obj 770 690 spigot;
#X obj 824 662 tgl 19 0 empty empty empty 0 -10 0 12 #fcfcfc #000000 #000000 0 1;
#X obj 894 690 spigot;
#X obj 944 663 tgl 19 0 empty empty empty 0 -10 0 12 #fcfcfc #000000 #000000 0 1;
#X obj 1260 673 spigot;
#X obj 1310 646 tgl 19 0 empty empty empty 0 -10 0 12 #fcfcfc #000000 #000000 0 1;
#X obj 953 719 bng 19 250 50 0 empty empty empty 0 -10 0 12 #fcfcfc #000000 #000000;
#X obj 731 714 bng 19 250 50 0 empty empty empty 0 -10 0 12 #fcfcfc #000000 #000000;
#X obj 1260 697 bng 19 250 50 0 empty empty empty 0 -10 0 12 #fcfcfc #000000 #000000;
#X obj 551 699 bng 19 250 50 0 empty empty empty 0 -10 0 12 #fcfcfc #000000 #000000;
#X obj 384 696 bng 19 250 50 0 empty empty empty 0 -10 0 12 #fcfcfc #000000 #000000;
#X obj 168 683 bng 19 250 50 0 empty empty empty 0 -10 0 12 #fcfcfc #000000 #000000;
#X obj 28 682 bng 19 250 50 0 empty empty empty 0 -10 0 12 #fcfcfc #000000 #000000;
#X obj 41 546 del 5;
#X obj 80 578 gatemode0;
#X obj 208 579 gatemode1;
#X obj 419 588 gatemode0;
#X obj 565 594 gatemode1;
#X obj 766 606 gatemode0;
#X obj 896 606 gatemode1;
#X obj 1265 580 gatemode1;
#X obj 208 540 del 5;
#X obj 792 573 del 5;
#X obj 920 573 del 5;
#X obj 443 553 del 5;
#X obj 585 554 del 5;
#X obj 1292 550 del 5;
#X obj 48 455 r mode_change;
#X obj 214 450 r mode_change;
#X obj 441 466 r mode_change;
#X obj 580 464 r mode_change;
#X obj 783 478 r mode_change;
#X obj 949 473 r mode_change;
#X obj 1293 457 r mode_change;
#X obj 31 69 cnv 19 200 50 empty empty Player\ 2 20 12 0 12 #e3c6ff #9c00ff 0;
#X obj 82 513 r row_change_ply2;
#X obj 252 511 r row_change_ply2;
#X obj 467 517 r row_change_ply2;
#X obj 604 509 r row_change_ply2;
#X obj 795 538 r row_change_ply2;
#X obj 965 536 r row_change_ply2;
#X obj 1306 516 r row_change_ply2;
#X obj 1312 620 r gate4_Ply2;
#X obj 946 637 r gate3_Ply2;
#X obj 826 636 r gate3_Ply2;
#X obj 603 622 r gate2_Ply2;
#X obj 483 621 r gate2_Ply2;
#X obj 255 608 r gate1_Ply2;
#X obj 135 607 r gate1_Ply2;
#X text 48 90 For Potentiometer 2:;
#X msg 79 725 0.1 3;
#X msg 198 717 500 10000;
#X msg 430 732 500 10000;
#X msg 535 738 110 1100;
#X msg 773 720 2000 8000;
#X msg 858 720 200 2000;
#X msg 1270 734 20 1000;
#X obj 54 807 s value1_pot2_ply2;
#X obj 206 809 s value2_pot2_ply2;
#X obj 427 822 s value1_pot2_ply2;
#X obj 569 822 s value2_pot2_ply2;
#X obj 771 797 s value1_pot2_ply2;
#X obj 913 796 s value2_pot2_ply2;
#X obj 1155 820 s value1_pot2_ply2;
#X obj 1296 818 s value2_pot2_ply2;
#X text 784 357 ---> will this work as float or int ??, f 18;
#X floatatom 684 154 5 0 0 0 - - - 0;
#X floatatom 653 272 5 0 0 0 - - - 0;
#X floatatom 650 397 5 0 0 0 - - - 0;
#X obj 705 361 clip 0 1;
#X obj 700 245 *;
#X obj 702 290 +;
#X obj 887 88 t b f;
#X obj 683 125 inlet;
#X floatatom 647 320 5 0 0 0 - - - 0;
#X obj 708 409 outlet;
#X obj 777 182 -;
#X floatatom 803 240 5 0 0 0 - - - 0;
#X obj 860 217 bng 19 250 50 0 empty empty empty 0 -10 0 12 #fcfcfc #000000 #000000;
#X obj 783 130 f;
#X obj 732 84 r value2_pot2_ply2;
#X obj 883 60 r value1_pot2_ply2;
#X obj 738 322 r value1_pot2_ply2;
#X obj 881 326 r value2_pot2_ply2;
#X obj 739 208 t b f;
#X connect 0 0 72 0;
#X connect 0 1 73 0;
#X connect 1 0 74 0;
#X connect 1 1 75 0;
#X connect 2 0 76 0;
#X connect 2 1 77 0;
#X connect 3 0 72 0;
#X connect 3 1 73 0;
#X connect 4 0 74 0;
#X connect 4 1 75 0;
#X connect 5 0 76 0;
#X connect 5 1 77 0;
#X connect 6 0 78 0;
#X connect 6 1 79 0;
#X connect 7 0 27 0;
#X connect 7 0 65 0;
#X connect 8 0 7 1;
#X connect 9 0 26 0;
#X connect 9 0 66 0;
#X connect 10 0 9 1;
#X connect 11 0 25 0;
#X connect 11 0 67 0;
#X connect 12 0 11 1;
#X connect 13 0 68 0;
#X connect 13 0 24 0;
#X connect 14 0 13 1;
#X connect 15 0 69 0;
#X connect 15 0 22 0;
#X connect 16 0 15 1;
#X connect 17 0 70 0;
#X connect 17 0 21 0;
#X connect 18 0 17 1;
#X connect 19 0 23 0;
#X connect 19 0 71 0;
#X connect 20 0 19 1;
#X connect 28 0 29 0;
#X connect 29 0 7 0;
#X connect 30 0 9 0;
#X connect 31 0 11 0;
#X connect 32 0 13 0;
#X connect 33 0 15 0;
#X connect 34 0 17 0;
#X connect 35 0 19 0;
#X connect 36 0 30 0;
#X connect 37 0 33 0;
#X connect 38 0 34 0;
#X connect 39 0 31 0;
#X connect 40 0 32 0;
#X connect 41 0 35 0;
#X connect 42 0 28 0;
#X connect 43 0 36 0;
#X connect 44 0 39 0;
#X connect 45 0 40 0;
#X connect 46 0 37 0;
#X connect 47 0 38 0;
#X connect 48 0 41 0;
#X connect 50 0 28 0;
#X connect 51 0 36 0;
#X connect 52 0 39 0;
#X connect 53 0 40 0;
#X connect 54 0 37 0;
#X connect 55 0 38 0;
#X connect 56 0 41 0;
#X connect 57 0 20 0;
#X connect 58 0 18 0;
#X connect 59 0 16 0;
#X connect 60 0 14 0;
#X connect 61 0 12 0;
#X connect 62 0 10 0;
#X connect 63 0 8 0;
#X connect 65 0 0 0;
#X connect 66 0 3 0;
#X connect 67 0 1 0;
#X connect 68 0 4 0;
#X connect 69 0 2 0;
#X connect 70 0 5 0;
#X connect 71 0 6 0;
#X connect 81 0 85 0;
#X connect 84 0 83 0;
#X connect 84 0 90 0;
#X connect 85 0 82 0;
#X connect 85 0 86 0;
#X connect 86 0 84 0;
#X connect 86 0 89 0;
#X connect 87 0 94 0;
#X connect 87 1 86 1;
#X connect 87 1 91 1;
#X connect 88 0 81 0;
#X connect 91 0 92 0;
#X connect 91 0 93 0;
#X connect 91 0 99 0;
#X connect 94 0 91 0;
#X connect 95 0 94 1;
#X connect 96 0 87 0;
#X connect 97 0 84 1;
#X connect 98 0 84 2;
#X connect 99 0 85 0;
#X connect 99 1 85 1;
