#N canvas 0 28 1440 872 12;
#X obj 108 731 unpack 0 0;
#X obj 436 729 unpack 0 0;
#X obj 774 678 unpack 0 0;
#X obj 1115 712 unpack 0 0;
#X obj 230 734 unpack 0 0;
#X obj 544 726 unpack 0 0;
#X obj 858 677 unpack 0 0;
#X obj 1212 713 unpack 0 0;
#X obj 110 630 spigot;
#X obj 164 602 tgl 19 0 empty empty empty 0 -10 0 12 #fcfcfc #000000 #000000 0 1;
#X obj 234 630 spigot;
#X obj 284 603 tgl 19 0 empty empty empty 0 -10 0 12 #fcfcfc #000000 #000000 0 1;
#X obj 436 628 spigot;
#X obj 490 600 tgl 19 0 empty empty empty 0 -10 0 12 #fcfcfc #000000 #000000 0 1;
#X obj 560 628 spigot;
#X obj 610 601 tgl 19 0 empty empty empty 0 -10 0 12 #fcfcfc #000000 #000000 0 1;
#X obj 770 623 spigot;
#X obj 824 595 tgl 19 0 empty empty empty 0 -10 0 12 #fcfcfc #000000 #000000 0 1;
#X obj 894 623 spigot;
#X obj 944 596 tgl 19 0 empty empty empty 0 -10 0 12 #fcfcfc #000000 #000000 0 1;
#X obj 1114 622 spigot;
#X obj 1168 594 tgl 19 0 empty empty empty 0 -10 0 12 #fcfcfc #000000 #000000 0 1;
#X obj 1238 622 spigot;
#X obj 1288 595 tgl 19 0 empty empty empty 0 -10 0 12 #fcfcfc #000000 #000000 0 1;
#X obj 953 652 bng 19 250 50 0 empty empty empty 0 -10 0 12 #fcfcfc #000000 #000000;
#X obj 731 647 bng 19 250 50 0 empty empty empty 0 -10 0 12 #fcfcfc #000000 #000000;
#X obj 1078 646 bng 19 250 50 0 empty empty empty 0 -10 0 12 #fcfcfc #000000 #000000;
#X obj 1238 646 bng 19 250 50 0 empty empty empty 0 -10 0 12 #fcfcfc #000000 #000000;
#X obj 560 652 bng 19 250 50 0 empty empty empty 0 -10 0 12 #fcfcfc #000000 #000000;
#X obj 393 649 bng 19 250 50 0 empty empty empty 0 -10 0 12 #fcfcfc #000000 #000000;
#X obj 199 652 bng 19 250 50 0 empty empty empty 0 -10 0 12 #fcfcfc #000000 #000000;
#X obj 59 651 bng 19 250 50 0 empty empty empty 0 -10 0 12 #fcfcfc #000000 #000000;
#X obj 72 515 del 5;
#X obj 111 547 gatemode0;
#X obj 239 548 gatemode1;
#X obj 428 541 gatemode0;
#X obj 574 547 gatemode1;
#X obj 766 539 gatemode0;
#X obj 896 539 gatemode1;
#X obj 1092 535 gatemode0;
#X obj 1243 529 gatemode1;
#X text 652 307 ---> will this work as float or int ??, f 18;
#X floatatom 552 104 5 0 0 0 - - - 0;
#X floatatom 521 222 5 0 0 0 - - - 0;
#X floatatom 518 347 5 0 0 0 - - - 0;
#X obj 573 311 clip 0 1;
#X obj 568 195 *;
#X obj 570 240 +;
#X obj 755 38 t b f;
#X obj 551 75 inlet;
#X floatatom 515 270 5 0 0 0 - - - 0;
#X obj 576 359 outlet;
#X obj 645 132 -;
#X floatatom 671 190 5 0 0 0 - - - 0;
#X obj 728 167 bng 19 250 50 0 empty empty empty 0 -10 0 12 #fcfcfc #000000 #000000;
#X obj 651 80 f;
#X obj 239 509 del 5;
#X obj 792 506 del 5;
#X obj 920 506 del 5;
#X obj 452 506 del 5;
#X obj 594 507 del 5;
#X obj 1134 500 del 5;
#X obj 1270 499 del 5;
#X obj 79 424 r mode_change;
#X obj 245 419 r mode_change;
#X obj 450 419 r mode_change;
#X obj 589 417 r mode_change;
#X obj 783 411 r mode_change;
#X obj 949 406 r mode_change;
#X obj 1154 405 r mode_change;
#X obj 1271 406 r mode_change;
#X obj 166 576 r gate1_Ply1;
#X obj 286 577 r gate1_Ply1;
#X obj 492 574 r gate2_Ply1;
#X obj 612 575 r gate2_Ply1;
#X obj 826 569 r gate3_Ply1;
#X obj 946 570 r gate3_Ply1;
#X obj 1170 568 r gate4_Ply1;
#X obj 1290 569 r gate4_Ply1;
#X obj 113 482 r row_change_ply1;
#X obj 283 480 r row_change_ply1;
#X obj 476 470 r row_change_ply1;
#X obj 613 462 r row_change_ply1;
#X obj 795 471 r row_change_ply1;
#X obj 965 469 r row_change_ply1;
#X obj 1151 458 r row_change_ply1;
#X obj 1284 465 r row_change_ply1;
#X msg 110 694 0.1 3;
#X msg 247 686 0.1 3;
#X msg 448 685 0.1 1;
#X msg 544 701 0.1 1;
#X msg 773 653 0.1 2;
#X msg 858 653 0.1 2;
#X msg 1212 688 0.1 1;
#X obj 40 51 cnv 19 200 50 empty empty Player\ 1 20 12 0 12 #ffe3c6 #ff8300 0;
#X text 57 72 For Potentiometer 3:;
#X obj 58 773 s value1_pot3_ply1;
#X obj 237 778 s value2_pot3_ply1;
#X obj 436 775 s value1_pot3_ply1;
#X obj 577 775 s value2_pot3_ply1;
#X obj 771 730 s value1_pot3_ply1;
#X obj 908 731 s value2_pot3_ply1;
#X obj 1121 770 s value1_pot3_ply1;
#X obj 1255 770 s value2_pot3_ply1;
#X obj 598 34 r value2_pot3_ply1;
#X obj 751 10 r value1_pot3_ply1;
#X obj 606 272 r value1_pot3_ply1;
#X obj 744 273 r value2_pot3_ply1;
#X msg 1115 687 0.1 2;
#X obj 606 159 t b f;
#X connect 0 0 96 0;
#X connect 0 1 97 0;
#X connect 1 0 98 0;
#X connect 1 1 99 0;
#X connect 2 0 100 0;
#X connect 2 1 101 0;
#X connect 3 0 102 0;
#X connect 3 1 103 0;
#X connect 4 0 96 0;
#X connect 4 1 97 0;
#X connect 5 0 98 0;
#X connect 5 1 99 0;
#X connect 6 0 100 0;
#X connect 6 1 101 0;
#X connect 7 0 102 0;
#X connect 7 1 103 0;
#X connect 8 0 31 0;
#X connect 8 0 87 0;
#X connect 9 0 8 1;
#X connect 10 0 30 0;
#X connect 10 0 88 0;
#X connect 11 0 10 1;
#X connect 12 0 29 0;
#X connect 12 0 89 0;
#X connect 13 0 12 1;
#X connect 14 0 90 0;
#X connect 14 0 28 0;
#X connect 15 0 14 1;
#X connect 16 0 91 0;
#X connect 16 0 25 0;
#X connect 17 0 16 1;
#X connect 18 0 92 0;
#X connect 18 0 24 0;
#X connect 19 0 18 1;
#X connect 20 0 108 0;
#X connect 20 0 26 0;
#X connect 21 0 20 1;
#X connect 22 0 93 0;
#X connect 22 0 27 0;
#X connect 23 0 22 1;
#X connect 32 0 33 0;
#X connect 33 0 8 0;
#X connect 34 0 10 0;
#X connect 35 0 12 0;
#X connect 36 0 14 0;
#X connect 37 0 16 0;
#X connect 38 0 18 0;
#X connect 39 0 20 0;
#X connect 40 0 22 0;
#X connect 42 0 46 0;
#X connect 45 0 44 0;
#X connect 45 0 51 0;
#X connect 46 0 43 0;
#X connect 46 0 47 0;
#X connect 47 0 45 0;
#X connect 47 0 50 0;
#X connect 48 0 55 0;
#X connect 48 1 47 1;
#X connect 48 1 52 1;
#X connect 49 0 42 0;
#X connect 52 0 53 0;
#X connect 52 0 54 0;
#X connect 52 0 109 0;
#X connect 55 0 52 0;
#X connect 56 0 34 0;
#X connect 57 0 37 0;
#X connect 58 0 38 0;
#X connect 59 0 35 0;
#X connect 60 0 36 0;
#X connect 61 0 39 0;
#X connect 62 0 40 0;
#X connect 63 0 32 0;
#X connect 64 0 56 0;
#X connect 65 0 59 0;
#X connect 66 0 60 0;
#X connect 67 0 57 0;
#X connect 68 0 58 0;
#X connect 69 0 61 0;
#X connect 70 0 62 0;
#X connect 71 0 9 0;
#X connect 72 0 11 0;
#X connect 73 0 13 0;
#X connect 74 0 15 0;
#X connect 75 0 17 0;
#X connect 76 0 19 0;
#X connect 77 0 21 0;
#X connect 78 0 23 0;
#X connect 79 0 32 0;
#X connect 80 0 56 0;
#X connect 81 0 59 0;
#X connect 82 0 60 0;
#X connect 83 0 57 0;
#X connect 84 0 58 0;
#X connect 85 0 61 0;
#X connect 86 0 62 0;
#X connect 87 0 0 0;
#X connect 88 0 4 0;
#X connect 89 0 1 0;
#X connect 90 0 5 0;
#X connect 91 0 2 0;
#X connect 92 0 6 0;
#X connect 93 0 7 0;
#X connect 104 0 55 1;
#X connect 105 0 48 0;
#X connect 106 0 45 1;
#X connect 107 0 45 2;
#X connect 108 0 3 0;
#X connect 109 0 46 0;
#X connect 109 1 46 1;
