#N canvas 0 0 1440 872 12;
#X obj 400 132 cnv 19 500 100 empty empty ToDo: 20 12 0 12 #feffc6 #0400ff 0;
#X text 423 156 clipping will have to be different depending on which row we are !!!;
#X text 422 190 see if its better to have normal values from 0-1 and then for each row scale them to the intervales i want;
#X text 869 155 ------->;
#X text 347 30 So we are in the player one case.;
#X text 341 53 Then we have 3 potentiometers \, 4 rows and 2 modes !!!;
#X text 345 71 For each Potentiometer value we have to consider its ranges depending which sound we are playing.;
#X obj 772 25 cnv 19 300 76 empty empty empty 20 12 0 12 #ffc7c6 #404040 0;
#X obj 775 32 r value1-\$0;
#X text 859 31 this "-\$0" doesnt seam to work \, gave strange values !!!, f 30;
#X text 858 74 why ?!!;
#X obj 75 714 unpack 0 0;
#X obj 425 728 unpack 0 0;
#X obj 772 697 unpack 0 0;
#X obj 1082 716 unpack 0 0;
#X obj 197 717 unpack 0 0;
#X obj 533 725 unpack 0 0;
#X obj 856 696 unpack 0 0;
#X obj 77 613 spigot;
#X obj 131 585 tgl 19 0 empty empty empty 0 -10 0 12 #fcfcfc #000000 #000000 0 1;
#X obj 201 613 spigot;
#X obj 251 586 tgl 19 0 empty empty empty 0 -10 0 12 #fcfcfc #000000 #000000 0 1;
#X obj 425 627 spigot;
#X obj 479 599 tgl 19 0 empty empty empty 0 -10 0 12 #fcfcfc #000000 #000000 0 1;
#X obj 549 627 spigot;
#X obj 599 600 tgl 19 0 empty empty empty 0 -10 0 12 #fcfcfc #000000 #000000 0 1;
#X obj 768 642 spigot;
#X obj 822 614 tgl 19 0 empty empty empty 0 -10 0 12 #fcfcfc #000000 #000000 0 1;
#X obj 892 642 spigot;
#X obj 942 615 tgl 19 0 empty empty empty 0 -10 0 12 #fcfcfc #000000 #000000 0 1;
#X obj 1081 626 spigot;
#X obj 1135 598 tgl 19 0 empty empty empty 0 -10 0 12 #fcfcfc #000000 #000000 0 1;
#X obj 951 671 bng 19 250 50 0 empty empty empty 0 -10 0 12 #fcfcfc #000000 #000000;
#X obj 729 666 bng 19 250 50 0 empty empty empty 0 -10 0 12 #fcfcfc #000000 #000000;
#X obj 1081 650 bng 19 250 50 0 empty empty empty 0 -10 0 12 #fcfcfc #000000 #000000;
#X obj 549 651 bng 19 250 50 0 empty empty empty 0 -10 0 12 #fcfcfc #000000 #000000;
#X obj 382 648 bng 19 250 50 0 empty empty empty 0 -10 0 12 #fcfcfc #000000 #000000;
#X obj 166 635 bng 19 250 50 0 empty empty empty 0 -10 0 12 #fcfcfc #000000 #000000;
#X obj 26 634 bng 19 250 50 0 empty empty empty 0 -10 0 12 #fcfcfc #000000 #000000;
#X text 17 341 actually ill take delay off;
#X obj 39 498 del 5;
#X text 19 253 Im putting "del 5" (delay 5ms) beacause the "r row" arrives first than the "r gate#" so it will send twice values but very fast and impossible to see but it might cause problems how knows \, so to avoid that ill put delay. Hope delay wont cause problems either !!!;
#X obj 78 530 gatemode0;
#X obj 206 531 gatemode1;
#X obj 417 540 gatemode0;
#X obj 563 546 gatemode1;
#X obj 764 558 gatemode0;
#X obj 894 558 gatemode1;
#X obj 1059 539 gatemode0;
#X text 1243 316 ---> will this work as float or int ??, f 18;
#X floatatom 1143 113 5 0 0 0 - - - 0;
#X floatatom 1112 231 5 0 0 0 - - - 0;
#X floatatom 1109 356 5 0 0 0 - - - 0;
#X obj 1164 320 clip 0 1;
#X obj 1159 204 *;
#X obj 1161 249 +;
#X obj 1346 47 t b f;
#X obj 1142 84 inlet;
#X floatatom 1106 279 5 0 0 0 - - - 0;
#X obj 1167 368 outlet;
#X obj 1236 141 -;
#X floatatom 1262 199 5 0 0 0 - - - 0;
#X obj 1319 176 bng 19 250 50 0 empty empty empty 0 -10 0 12 #fcfcfc #000000 #000000;
#X obj 1242 89 f;
#X msg 77 677 10 2000;
#X msg 428 684 30 1000;
#X obj 206 492 del 5;
#X obj 790 525 del 5;
#X obj 918 525 del 5;
#X obj 441 505 del 5;
#X obj 583 506 del 5;
#X obj 1101 504 del 5;
#X obj 46 407 r mode_change;
#X obj 212 402 r mode_change;
#X obj 439 418 r mode_change;
#X obj 578 416 r mode_change;
#X obj 781 430 r mode_change;
#X obj 947 425 r mode_change;
#X obj 1130 409 r mode_change;
#X obj 80 465 r row_change_ply1;
#X obj 250 463 r row_change_ply1;
#X obj 465 469 r row_change_ply1;
#X obj 602 461 r row_change_ply1;
#X obj 793 490 r row_change_ply1;
#X obj 963 488 r row_change_ply1;
#X obj 1134 462 r row_change_ply1;
#X obj 133 559 r gate1_Ply1;
#X obj 253 560 r gate1_Ply1;
#X obj 481 573 r gate2_Ply1;
#X obj 601 574 r gate2_Ply1;
#X obj 824 588 r gate3_Ply1;
#X obj 944 589 r gate3_Ply1;
#X obj 1150 570 r gate4_Ply1;
#X obj 867 283 cnv 19 126 50 empty empty empty 20 12 0 12 #ffe3c6 #404040 0;
#X text 872 300 for pot 1 ply 1:;
#X msg 196 669 10 2000;
#X msg 533 690 100 1000;
#X msg 771 672 100 1000;
#X obj 40 51 cnv 19 200 50 empty empty Player\ 1 20 12 0 12 #ffe3c6 #ff8300 0;
#X text 57 72 For Potentiometer 1:;
#X msg 1082 691 10 80;
#X obj 26 776 s value1_pot1_ply1;
#X obj 204 761 s value2_pot1_ply1;
#X obj 425 774 s value1_pot1_ply1;
#X obj 570 776 s value2_pot1_ply1;
#X obj 769 749 s value1_pot1_ply1;
#X obj 864 770 s value2_pot1_ply1;
#X obj 1088 774 s value1_pot1_ply1;
#X obj 1241 772 s value2_pot1_ply1;
#X obj 1197 281 r value1_pot1_ply1;
#X obj 1282 249 r value2_pot1_ply1;
#X obj 1172 46 r value2_pot1_ply1;
#X obj 1333 19 r value1_pot1_ply1;
#X msg 856 672 100 1000;
#X obj 1186 171 t b f;
#X connect 11 0 101 0;
#X connect 11 1 102 0;
#X connect 12 0 103 0;
#X connect 12 1 104 0;
#X connect 13 0 105 0;
#X connect 13 1 106 0;
#X connect 14 0 107 0;
#X connect 14 1 108 0;
#X connect 15 0 101 0;
#X connect 15 1 102 0;
#X connect 16 0 103 0;
#X connect 16 1 104 0;
#X connect 17 0 105 0;
#X connect 17 1 106 0;
#X connect 18 0 38 0;
#X connect 18 0 64 0;
#X connect 19 0 18 1;
#X connect 20 0 37 0;
#X connect 20 0 95 0;
#X connect 21 0 20 1;
#X connect 22 0 36 0;
#X connect 22 0 65 0;
#X connect 23 0 22 1;
#X connect 24 0 96 0;
#X connect 24 0 35 0;
#X connect 25 0 24 1;
#X connect 26 0 97 0;
#X connect 26 0 33 0;
#X connect 27 0 26 1;
#X connect 28 0 113 0;
#X connect 28 0 32 0;
#X connect 29 0 28 1;
#X connect 30 0 100 0;
#X connect 30 0 34 0;
#X connect 31 0 30 1;
#X connect 40 0 42 0;
#X connect 42 0 18 0;
#X connect 43 0 20 0;
#X connect 44 0 22 0;
#X connect 45 0 24 0;
#X connect 46 0 26 0;
#X connect 47 0 28 0;
#X connect 48 0 30 0;
#X connect 50 0 54 0;
#X connect 53 0 52 0;
#X connect 53 0 59 0;
#X connect 54 0 51 0;
#X connect 54 0 55 0;
#X connect 55 0 53 0;
#X connect 55 0 58 0;
#X connect 56 0 63 0;
#X connect 56 1 55 1;
#X connect 56 1 60 1;
#X connect 57 0 50 0;
#X connect 60 0 61 0;
#X connect 60 0 62 0;
#X connect 60 0 114 0;
#X connect 63 0 60 0;
#X connect 64 0 11 0;
#X connect 65 0 12 0;
#X connect 66 0 43 0;
#X connect 67 0 46 0;
#X connect 68 0 47 0;
#X connect 69 0 44 0;
#X connect 70 0 45 0;
#X connect 71 0 48 0;
#X connect 72 0 40 0;
#X connect 73 0 66 0;
#X connect 74 0 69 0;
#X connect 75 0 70 0;
#X connect 76 0 67 0;
#X connect 77 0 68 0;
#X connect 78 0 71 0;
#X connect 79 0 40 0;
#X connect 80 0 66 0;
#X connect 81 0 69 0;
#X connect 82 0 70 0;
#X connect 83 0 67 0;
#X connect 84 0 68 0;
#X connect 85 0 71 0;
#X connect 86 0 19 0;
#X connect 87 0 21 0;
#X connect 88 0 23 0;
#X connect 89 0 25 0;
#X connect 90 0 27 0;
#X connect 91 0 29 0;
#X connect 92 0 31 0;
#X connect 95 0 15 0;
#X connect 96 0 16 0;
#X connect 97 0 13 0;
#X connect 100 0 14 0;
#X connect 109 0 53 1;
#X connect 110 0 53 2;
#X connect 111 0 63 1;
#X connect 112 0 56 0;
#X connect 113 0 17 0;
#X connect 114 0 54 0;
#X connect 114 1 54 1;
