#N canvas 0 28 1440 872 12;
#X msg 474 321 550;
#X obj 474 345 phasor~;
#X obj 474 369 *~ 0.5;
#X obj 563 343 phasor~;
#X obj 563 367 *~ 0.5;
#X msg 563 319 830;
#X obj 682 347 vline~;
#X obj 682 371 pow~ 6;
#X obj 813 348 vline~;
#X obj 813 372 pow~ 3;
#X obj 596 517 *~;
#X msg 682 323 1 4 \, 0 \$1 4;
#X msg 813 324 0.5 4 \, 0 \$1 4;
#X obj 686 248 f 250;
#X obj 846 262 + 350;
#X obj 527 121 inlet;
#X obj 717 193 inlet;
#X obj 713 614 outlet~;
#X floatatom 934 409 5 0 0 0 - - - 0;
#X obj 934 461 line~;
#X msg 934 432 \$1 500;
#X obj 932 373 inlet;
#X text 997 390 volume envolope;
#X obj 715 583 *~;
#X connect 0 0 1 0;
#X connect 1 0 2 0;
#X connect 2 0 10 0;
#X connect 3 0 4 0;
#X connect 4 0 10 0;
#X connect 5 0 3 0;
#X connect 6 0 7 0;
#X connect 7 0 10 1;
#X connect 8 0 9 0;
#X connect 9 0 10 1;
#X connect 10 0 23 0;
#X connect 11 0 6 0;
#X connect 12 0 8 0;
#X connect 13 0 11 0;
#X connect 13 0 14 0;
#X connect 14 0 12 0;
#X connect 15 0 13 0;
#X connect 15 0 0 0;
#X connect 15 0 5 0;
#X connect 16 0 13 1;
#X connect 18 0 20 0;
#X connect 19 0 23 1;
#X connect 20 0 19 0;
#X connect 21 0 18 0;
#X connect 23 0 17 0;
