#N canvas 0 28 1440 872 12;
#X obj 272 220 noise~;
#N canvas 92 117 918 444 filters 0;
#X obj 145 60 inlet~;
#X obj 147 205 outlet~;
#X obj 145 91 biquad~ 0.638282 -0.176456 0.134544 0.269087 0.134544;
#X obj 147 117 biquad~ 0.88843 -0.568944 0.614344 -1.22869 0.614344;
#X obj 148 145 biquad~ 0.88843 -0.568944 0.614344 -1.22869 0.614344;
#X obj 147 174 biquad~ 1.86507 -0.892661 0.939432 -1.87886 0.939432;
#X connect 0 0 2 0;
#X connect 2 0 3 0;
#X connect 3 0 4 0;
#X connect 4 0 5 0;
#X connect 5 0 1 0;
#X restore 315 295 pd filters;
#X obj 317 337 freeverb~;
#X obj 355 432 *~;
#N canvas 121 146 450 300 vol_env 0;
#X obj 167 124 vline~;
#X obj 166 73 f 250;
#X obj 166 42 inlet;
#X obj 225 39 inlet;
#X obj 168 161 outlet~;
#X msg 167 100 1 2 \, 0.4 \$1 2 \, 0 \$1 \$1;
#X connect 0 0 4 0;
#X connect 1 0 5 0;
#X connect 2 0 1 0;
#X connect 3 0 1 1;
#X connect 5 0 0 0;
#X restore 503 401 pd vol_env;
#X floatatom 570 371 5 0 0 0 - - - 0;
#X text 541 230 controle the tone !!!;
#N canvas 0 25 1440 788 six_pulse_osc 0;
#X obj 168 253 phasor~;
#X obj 168 277 expr~ $v1 > 0.55;
#X obj 291 251 phasor~;
#X obj 291 275 expr~ $v1 > 0.55;
#X obj 291 223 * 1.3212;
#X obj 411 249 phasor~;
#X obj 411 273 expr~ $v1 > 0.55;
#X obj 534 247 phasor~;
#X obj 534 271 expr~ $v1 > 0.55;
#X obj 658 245 phasor~;
#X obj 658 269 expr~ $v1 > 0.55;
#X obj 788 244 phasor~;
#X obj 788 268 expr~ $v1 > 0.55;
#X obj 411 221 * 1.2342;
#X obj 534 220 * 1.6532;
#X obj 658 217 * 1.8425;
#X obj 788 216 * 2.1534;
#X obj 363 106 inlet;
#X text 370 79 freq;
#X obj 455 360 *~ 0.9;
#X obj 455 384 outlet~;
#X connect 0 0 1 0;
#X connect 1 0 19 0;
#X connect 2 0 3 0;
#X connect 3 0 19 0;
#X connect 4 0 2 0;
#X connect 5 0 6 0;
#X connect 6 0 19 0;
#X connect 7 0 8 0;
#X connect 8 0 19 0;
#X connect 9 0 10 0;
#X connect 10 0 19 0;
#X connect 11 0 12 0;
#X connect 12 0 19 0;
#X connect 13 0 5 0;
#X connect 14 0 7 0;
#X connect 15 0 9 0;
#X connect 16 0 11 0;
#X connect 17 0 0 0;
#X connect 17 0 4 0;
#X connect 17 0 13 0;
#X connect 17 0 14 0;
#X connect 17 0 15 0;
#X connect 17 0 16 0;
#X connect 19 0 20 0;
#X restore 404 233 pd six_pulse_osc;
#X floatatom 403 206 5 0 0 0 - - - 0;
#X obj 388 494 delwrite~ \$0-del 10;
#X text 540 494 adds delay for more texture;
#X obj 391 531 delread~ \$0-del 5;
#X text 528 533 5ms delay added to the original sound;
#X obj 287 132 inlet;
#X obj 570 343 inlet;
#X text 625 370 decay/duration;
#X text 546 212 pitch/tone;
#X obj 717 71 inlet;
#X obj 373 685 outlet~;
#X obj 486 146 loadbang;
#X msg 486 170 220;
#X text 569 156 makes sure it initializes with some kind of pitch;
#X obj 374 649 *~;
#X obj 870 533 line~;
#X msg 870 504 \$1 500;
#X obj 868 474 inlet;
#X text 868 446 volume envolope;
#X text 772 67 so that decay is first;
#X connect 0 0 1 0;
#X connect 1 0 2 0;
#X connect 2 0 3 0;
#X connect 3 0 9 0;
#X connect 3 0 22 0;
#X connect 4 0 3 1;
#X connect 5 0 4 1;
#X connect 7 0 1 0;
#X connect 8 0 7 0;
#X connect 11 0 22 0;
#X connect 13 0 4 0;
#X connect 14 0 5 0;
#X connect 17 0 8 0;
#X connect 19 0 20 0;
#X connect 20 0 8 0;
#X connect 22 0 18 0;
#X connect 23 0 22 1;
#X connect 24 0 23 0;
#X connect 25 0 24 0;
