#N canvas 0 28 1440 872 12;
#X obj 374 224 spigot;
#X obj 413 190 tgl 19 0 empty empty empty 0 -10 0 12 #fcfcfc #000000 #000000 0 1;
#X obj 373 189 bng 19 250 50 0 empty empty empty 0 -10 0 12 #fcfcfc #000000 #000000;
#X obj 374 248 bng 19 250 50 0 empty empty empty 0 -10 0 12 #fcfcfc #000000 #000000;
#X obj 458 155 r mode1;
#X floatatom 456 181 5 0 0 0 - - - 0;
#X obj 374 161 inlet;
#X obj 375 273 outlet;
#X connect 0 0 3 0;
#X connect 1 0 0 1;
#X connect 2 0 0 0;
#X connect 3 0 7 0;
#X connect 4 0 1 0;
#X connect 4 0 5 0;
#X connect 6 0 2 0;
