#N canvas 0 28 1440 900 12;
#N canvas 802 393 450 300 square_wave 0;
#X obj 34 129 expr~ if($v1>0.5 \, 1 \, 0);
#X obj 34 105 phasor~ 400;
#X text 224 116 another way of making a square wave from 0 to 1;
#X obj 39 169 outlet~;
#X obj 35 66 inlet~;
#X connect 0 0 3 0;
#X connect 1 0 0 0;
#X connect 4 0 1 0;
#X restore 368 321 pd square_wave;
#N canvas 802 393 450 300 square_wave 0;
#X obj 34 129 expr~ if($v1>0.5 \, 1 \, 0);
#X obj 34 105 phasor~ 400;
#X text 224 116 another way of making a square wave from 0 to 1;
#X obj 39 169 outlet~;
#X obj 35 66 inlet~;
#X connect 0 0 3 0;
#X connect 1 0 0 0;
#X connect 4 0 1 0;
#X restore 369 398 pd square_wave;
#N canvas 802 393 450 300 square_wave 0;
#X obj 34 129 expr~ if($v1>0.5 \, 1 \, 0);
#X obj 34 105 phasor~ 400;
#X text 224 116 another way of making a square wave from 0 to 1;
#X obj 39 169 outlet~;
#X obj 35 66 inlet~;
#X connect 0 0 3 0;
#X connect 1 0 0 0;
#X connect 4 0 1 0;
#X restore 368 248 pd square_wave;
#N canvas 802 393 450 300 square_wave 0;
#X obj 34 129 expr~ if($v1>0.5 \, 1 \, 0);
#X obj 34 105 phasor~ 400;
#X text 224 116 another way of making a square wave from 0 to 1;
#X obj 39 169 outlet~;
#X obj 35 66 inlet~;
#X connect 0 0 3 0;
#X connect 1 0 0 0;
#X connect 4 0 1 0;
#X restore 368 180 pd square_wave;
#X obj 367 150 *~ 2;
#N canvas 802 393 450 300 square_wave 0;
#X obj 34 129 expr~ if($v1>0.5 \, 1 \, 0);
#X obj 34 105 phasor~ 400;
#X text 224 116 another way of making a square wave from 0 to 1;
#X obj 39 169 outlet~;
#X obj 35 66 inlet~;
#X connect 0 0 3 0;
#X connect 1 0 0 0;
#X connect 4 0 1 0;
#X restore 373 473 pd square_wave;
#N canvas 802 393 450 300 square_wave 0;
#X obj 34 129 expr~ if($v1>0.5 \, 1 \, 0);
#X obj 34 105 phasor~ 400;
#X text 224 116 another way of making a square wave from 0 to 1;
#X obj 39 169 outlet~;
#X obj 35 66 inlet~;
#X connect 0 0 3 0;
#X connect 1 0 0 0;
#X connect 4 0 1 0;
#X restore 373 550 pd square_wave;
#X obj 367 218 *~ 3;
#X obj 367 291 *~ 4.16;
#X obj 368 368 *~ 5.43;
#X obj 372 443 *~ 6.79;
#X obj 372 520 *~ 8.12;
#X obj 598 336 bp~ 10000 20;
#X text 28 85 value in MIDI == E2 note (82.41 freq);
#X obj 172 206 mtof;
#X floatatom 172 257 5 0 0 0 - - - 0;
#X floatatom 503 224 5 0 0 0 - - - 0;
#X text 347 86 I dont know how this 40 is going to a object that askes for a signal (~) . I dont understand how this is working;
#X text 23 337 a lot of notes playing a the same time !!!!;
#X obj 599 406 hip~ 7000;
#X obj 599 438 hip~ 7000;
#X text 683 469 I dont understand the double hip pass filter here on the same freq. My guess is to make it double zero and double poles, f 33;
#X obj 888 41 bng 19 250 50 0 empty empty empty 0 -10 0 12 #fcfcfc #000000 #000000;
#X obj 990 189 vline~;
#X obj 990 221 pow~ 4;
#X obj 925 148 *~;
#X obj 924 177 *~;
#X text 671 161 I think this is the same as pow~ 4;
#X text 707 179 was the 4pole thing;
#X obj 600 473 hip~ 7000;
#X obj 600 505 hip~ 7000;
#X floatatom 310 18 5 0 0 0 - - - 0;
#X msg 311 42 \$1;
#X floatatom 1048 266 5 0 0 0 - - - 0;
#X obj 906 581 *~;
#X text 25 105 i could change the pitch;
#X text 116 131 here;
#X msg 178 143 40;
#X obj 1114 98 inlet;
#X msg 990 165 1 2 \, 0 \$1 2;
#X text 1039 147 90;
#X obj 1010 55 inlet;
#X obj 888 10 inlet;
#X obj 991 118 f 90;
#X text 1158 98 filter;
#X text 1055 55 decay;
#X obj 935 752 outlet~;
#X obj 1248 535 line~;
#X msg 1248 506 \$1 500;
#X obj 1246 476 inlet;
#X obj 934 706 *~;
#X text 1246 448 volume envolope;
#X obj 1043 326 / 1000;
#X obj 1023 453 line~;
#X msg 1024 426 \$1 2;
#X floatatom 1062 358 5 0 0 0 - - - 0;
#X obj 1017 381 * 1.5;
#X obj 937 639 *~;
#X text 1108 318 do this part because the filter makes the sound lower \, so like this i make the sound more less the same volume, f 29;
#X connect 0 0 12 0;
#X connect 1 0 12 0;
#X connect 2 0 12 0;
#X connect 3 0 12 0;
#X connect 4 0 3 0;
#X connect 5 0 12 0;
#X connect 6 0 12 0;
#X connect 7 0 2 0;
#X connect 8 0 0 0;
#X connect 9 0 1 0;
#X connect 10 0 5 0;
#X connect 11 0 6 0;
#X connect 12 0 19 0;
#X connect 14 0 15 0;
#X connect 19 0 20 0;
#X connect 20 0 29 0;
#X connect 22 0 43 0;
#X connect 22 0 37 0;
#X connect 23 0 24 0;
#X connect 24 0 57 1;
#X connect 25 0 26 0;
#X connect 25 0 26 1;
#X connect 29 0 30 0;
#X connect 30 0 34 0;
#X connect 31 0 32 0;
#X connect 33 0 19 1;
#X connect 33 0 20 1;
#X connect 33 0 29 1;
#X connect 33 0 30 1;
#X connect 33 0 52 0;
#X connect 34 0 57 0;
#X connect 37 0 14 0;
#X connect 37 0 7 0;
#X connect 37 0 8 0;
#X connect 37 0 9 0;
#X connect 37 0 10 0;
#X connect 37 0 11 0;
#X connect 37 0 4 0;
#X connect 38 0 33 0;
#X connect 39 0 23 0;
#X connect 41 0 43 1;
#X connect 42 0 22 0;
#X connect 43 0 39 0;
#X connect 47 0 50 1;
#X connect 48 0 47 0;
#X connect 49 0 48 0;
#X connect 50 0 46 0;
#X connect 52 0 55 0;
#X connect 52 0 56 0;
#X connect 53 0 34 1;
#X connect 54 0 53 0;
#X connect 56 0 54 0;
#X connect 57 0 50 0;
