#N canvas 0 28 1440 872 12;
#X obj 514 425 expr~ $v1 > 0.5;
#X obj 512 391 phasor~ 55;
#X text 355 416 didnt really get this;
#X obj 553 718 *~;
#X floatatom 650 123 5 0 0 0 - - - 0;
#X obj 595 150 f 500;
#N canvas 92 117 450 300 vol_env 0;
#X obj 85 108 vline~;
#X obj 85 139 *~;
#X msg 85 71 0.5 \, 1 5 \, 0.5 60 5 \, 0 \$1 65;
#X obj 85 181 outlet~;
#X obj 86 35 inlet;
#X text 158 50 goes immideatly to volume 0.5;
#X connect 0 0 1 0;
#X connect 0 0 1 1;
#X connect 1 0 3 0;
#X connect 2 0 0 0;
#X connect 4 0 2 0;
#X restore 247 267 pd vol_env;
#N canvas 0 28 1440 872 pitch_env 0;
#X obj 85 108 vline~;
#X obj 85 139 *~;
#X obj 87 246 outlet~;
#X obj 86 35 inlet;
#X msg 85 71 1 \, 0.5 5 \, 0 \$1 5;
#X obj 85 163 *~ 80;
#X obj 85 187 +~ 29;
#X text 144 175 MIDI pitch - from 109 down to 29;
#X text 138 140 from 0 to 1;
#X obj 87 212 mtof~;
#X text 140 200 MIDI to freq. Convert to a freq for the sqaure wave, f 28;
#X connect 0 0 1 0;
#X connect 0 0 1 1;
#X connect 1 0 5 0;
#X connect 3 0 4 0;
#X connect 4 0 0 0;
#X connect 5 0 6 0;
#X connect 6 0 9 0;
#X connect 9 0 2 0;
#X restore 508 304 pd pitch_env;
#X text 62 406 i think its a way to make square wave oscilater out of the saw thoot wave generated from the phasor~ object, f 37;
#X text 349 339 controle the scaling of the pitch envolope, f 22;
#X obj 530 345 *~ 1;
#X floatatom 775 194 5 0 0 1 pitch_scale - - 0;
#X obj 526 480 vcf~ 0.5;
#X text 592 481 right outlet is the low pass;
#X text 590 501 left output is the band pass;
#X text 913 360 use pitch env to controle the filter;
#X obj 857 364 *~ 1.5;
#X floatatom 948 212 5 0 0 1 filter_scale - - 0;
#X obj 446 448 noise~;
#X floatatom 1117 450 5 0 0 1 sine_scale - - 0;
#X obj 996 504 osc~;
#X obj 995 476 *~ 0.75;
#X obj 776 164 inlet;
#X obj 653 94 inlet;
#X obj 948 174 inlet;
#X obj 643 820 outlet~;
#X obj 558 71 inlet;
#X text 697 124 decay im definitly gonna do !!!!!;
#X obj 1118 397 loadbang;
#X text 1243 383 dont use as input but maybe leave it with a predifined value that sounds nice. This sine scale makes the drum sound more digital and eletronic so i might just take it, f 26;
#X floatatom 1064 648 5 0 0 0 - - - 0;
#X obj 1064 700 line~;
#X msg 1064 671 \$1 500;
#X obj 644 782 *~;
#X text 945 589 volume envolope;
#X text 1021 566 I think for the kick ill exclude the volume envolope;
#X obj 1065 588 loadbang;
#X text 1113 621 check if i want to make another value;
#X msg 1118 421 0.5;
#X msg 1064 618 1;
#X connect 0 0 12 0;
#X connect 1 0 0 0;
#X connect 3 0 33 0;
#X connect 4 0 5 1;
#X connect 5 0 6 0;
#X connect 5 0 7 0;
#X connect 6 0 3 0;
#X connect 7 0 10 0;
#X connect 7 0 16 0;
#X connect 10 0 1 0;
#X connect 10 0 21 0;
#X connect 11 0 10 1;
#X connect 12 1 3 1;
#X connect 16 0 12 1;
#X connect 17 0 16 1;
#X connect 18 0 12 0;
#X connect 19 0 21 1;
#X connect 20 0 3 1;
#X connect 21 0 20 0;
#X connect 22 0 11 0;
#X connect 23 0 4 0;
#X connect 24 0 17 0;
#X connect 26 0 5 0;
#X connect 28 0 38 0;
#X connect 30 0 32 0;
#X connect 31 0 33 1;
#X connect 32 0 31 0;
#X connect 33 0 25 0;
#X connect 36 0 39 0;
#X connect 38 0 19 0;
#X connect 39 0 30 0;
