#N canvas 0 28 1440 872 12;
#X obj 454 341 noise~;
#X obj 459 448 *~;
#X obj 543 246 f 250;
#X floatatom 575 205 5 0 0 0 - - - 0;
#N canvas 411 436 450 300 vol_env 0;
#X obj 140 151 vline~;
#X msg 140 111 1 0.5 \, 0 \$1 0.5;
#X obj 141 183 *~;
#X obj 144 66 inlet;
#X obj 142 242 outlet~;
#X connect 0 0 2 0;
#X connect 0 0 2 1;
#X connect 1 0 0 0;
#X connect 2 0 4 0;
#X connect 3 0 1 0;
#X restore 420 281 pd vol_env;
#X obj 453 380 hip~ 100;
#X text 588 511 band-pass filter;
#X obj 462 514 vcf~ 3;
#X obj 525 513 vcf~ 5;
#X text 591 530 3 and 5 are the resonance values;
#N canvas 411 436 450 300 cutoff_env 0;
#X obj 140 151 vline~;
#X msg 140 111 1 0.5 \, 0 \$1 0.5;
#X obj 141 183 *~;
#X obj 144 66 inlet;
#X obj 142 242 outlet~;
#X connect 0 0 2 0;
#X connect 0 0 2 1;
#X connect 1 0 0 0;
#X connect 2 0 4 0;
#X connect 3 0 1 0;
#X restore 653 312 pd cutoff_env;
#X obj 779 361 *~ 8000;
#X obj 779 385 +~ 100;
#X obj 884 362 *~ 5000;
#X obj 884 386 +~ 200;
#N canvas 440 136 808 522 FM_osc 0;
#X obj 211 306 osc~;
#X obj 214 346 *~;
#X obj 324 274 *~;
#X text 144 265 make the curve steeper by squaring the output, f 24;
#X obj 169 123 sig~ 150;
#X obj 169 161 +~;
#X text 108 99 center freq of 150HZ;
#X text 106 63 sig~ converts numbers to signals;
#X obj 293 94 osc~ 50;
#X obj 293 118 *~ 30;
#X text 359 106 modulator;
#X text 150 305 carrier;
#X text 207 166 this means we will have a modulator with 50HZ freq with amplitude between 120 and 180, f 31;
#X text 127 390 so the freq of the carrier will vary very quickly (because of the freq of the modulator being 50HZ) between 120HZ and 180Hz (because of the amplitude of the modulator entering as freq to the carrier, f 34;
#X obj 491 156 inlet~;
#X obj 381 348 outlet~;
#X connect 0 0 1 0;
#X connect 1 0 15 0;
#X connect 2 0 1 1;
#X connect 4 0 5 0;
#X connect 5 0 0 0;
#X connect 8 0 9 0;
#X connect 9 0 5 1;
#X connect 14 0 2 0;
#X connect 14 0 2 1;
#X restore 270 363 pd FM_osc;
#X obj 620 272 * 2;
#X floatatom 645 246 5 0 0 0 - - - 0;
#X floatatom 840 286 5 0 0 0 - - - 0;
#X obj 840 309 * 0.6;
#X obj 840 253 inlet;
#X obj 576 163 inlet;
#X obj 526 138 inlet;
#X obj 712 752 outlet~;
#X floatatom 976 472 5 0 0 0 - - - 0;
#X obj 976 524 line~;
#X msg 976 495 \$1 500;
#X obj 713 711 *~;
#X obj 974 436 inlet;
#X text 1039 453 volume envolope;
#X connect 0 0 5 0;
#X connect 1 0 7 0;
#X connect 1 0 8 0;
#X connect 2 0 4 0;
#X connect 2 0 16 0;
#X connect 3 0 2 1;
#X connect 4 0 1 1;
#X connect 4 0 15 0;
#X connect 5 0 1 0;
#X connect 7 0 27 0;
#X connect 8 0 27 0;
#X connect 10 0 11 0;
#X connect 10 0 13 0;
#X connect 11 0 12 0;
#X connect 12 0 7 1;
#X connect 13 0 14 0;
#X connect 14 0 8 1;
#X connect 15 0 7 0;
#X connect 15 0 8 0;
#X connect 16 0 10 0;
#X connect 17 0 16 1;
#X connect 18 0 19 0;
#X connect 18 0 11 1;
#X connect 19 0 13 1;
#X connect 20 0 18 0;
#X connect 21 0 3 0;
#X connect 22 0 2 0;
#X connect 24 0 26 0;
#X connect 25 0 27 1;
#X connect 26 0 25 0;
#X connect 27 0 23 0;
#X connect 28 0 24 0;
