#N canvas 129 180 1440 789 12;
#X obj 771 719 outlet~;
#N canvas 0 28 1440 872 env 0;
#X obj 351 415 vline~;
#X obj 349 450 *~;
#X text 442 367 goes to zero \, time to decay \, delay;
#X obj 304 260 inlet;
#X obj 348 542 outlet~;
#X obj 349 484 *~;
#X text 398 463 square the output;
#X msg 349 388 1 3 \, 0 \$1 53;
#X obj 387 266 inlet;
#X obj 357 315 f 90;
#X connect 0 0 1 1;
#X connect 0 0 1 0;
#X connect 1 0 5 0;
#X connect 1 0 5 1;
#X connect 3 0 9 0;
#X connect 5 0 4 0;
#X connect 7 0 0 0;
#X connect 8 0 9 1;
#X connect 9 0 7 0;
#X restore 999 295 pd env;
#X obj 735 485 *~;
#X msg 1201 546 \$1 500;
#X obj 769 671 *~;
#N canvas 0 25 1440 789 envfil 0;
#X obj 184 216 line, f 15;
#X msg 96 141 \$1;
#X obj 96 118 f;
#X obj 352 146 f;
#X obj 343 102 del 100;
#X msg 242 168 \$1 100;
#X msg 352 169 \$1 1000;
#X obj 219 86 del 5;
#X obj 101 34 inlet;
#X obj 220 40 inlet;
#X obj 190 255 outlet;
#X obj 211 120 + 150;
#X obj 179 141 f;
#X connect 0 0 10 0;
#X connect 1 0 0 0;
#X connect 2 0 1 0;
#X connect 3 0 6 0;
#X connect 4 0 3 0;
#X connect 5 0 0 0;
#X connect 6 0 0 0;
#X connect 7 0 4 0;
#X connect 7 0 12 0;
#X connect 8 0 2 1;
#X connect 8 0 3 1;
#X connect 8 0 11 0;
#X connect 9 0 2 0;
#X connect 9 0 7 0;
#X connect 11 0 12 1;
#X connect 12 0 5 0;
#X restore 653 241 pd envfil;
#X obj 1201 575 line;
#X obj 760 47 inlet;
#X obj 831 50 inlet;
#X obj 1193 480 inlet;
#X text 832 28 filter;
#X obj 560 47 inlet;
#X text 555 18 metro;
#X obj 587 358 bp~ 1000 6;
#X obj 434 269 phasor~ 43.65;
#X obj 439 296 clip~ -1 1;
#X obj 623 447 lop~;
#X text 756 27 decay;
#X connect 1 0 2 1;
#X connect 2 0 4 0;
#X connect 3 0 6 0;
#X connect 4 0 0 0;
#X connect 5 0 13 1;
#X connect 5 0 16 1;
#X connect 6 0 4 1;
#X connect 7 0 1 1;
#X connect 8 0 5 0;
#X connect 9 0 3 0;
#X connect 11 0 5 1;
#X connect 11 0 1 0;
#X connect 13 0 16 0;
#X connect 14 0 15 0;
#X connect 15 0 13 0;
#X connect 16 0 2 0;
