#N canvas 0 25 1440 789 12;
#X obj 358 222 noise~;
#X obj 359 291 lop~;
#X obj 359 256 hip~;
#N canvas 0 25 1440 789 multi-env 1;
#X obj 66 67 inlet;
#N canvas 931 99 450 300 vol_env 0;
#X obj 87 83 inlet;
#X obj 87 107 f 250;
#X msg 87 131 1 0.2 \, 0 \$1 0.2;
#X text 208 123 goes to pick very fast (0.2ms) then decays at a specified time, f 32;
#X obj 87 155 vline~;
#X obj 87 179 *~;
#X obj 87 203 *~;
#X text 129 182 we square the output twice so we get to steep the decay curve, f 32;
#X obj 87 227 outlet~;
#X obj 155 84 inlet;
#X text 202 86 decay;
#X connect 0 0 1 0;
#X connect 1 0 2 0;
#X connect 2 0 4 0;
#X connect 4 0 5 0;
#X connect 4 0 5 1;
#X connect 5 0 6 0;
#X connect 5 0 6 1;
#X connect 6 0 8 0;
#X connect 9 0 1 1;
#X restore 67 228 pd vol_env;
#X obj 70 319 outlet~;
#X obj 315 25 inlet;
#N canvas 0 28 1440 872 vol_env 0;
#X obj 87 83 inlet;
#X obj 87 107 f 250;
#X msg 87 131 1 0.2 \, 0 \$1 0.2;
#X text 208 123 goes to pick very fast (0.2ms) then decays at a specified time, f 32;
#X obj 87 155 vline~;
#X obj 87 179 *~;
#X obj 87 203 *~;
#X text 129 182 we square the output twice so we get to steep the decay curve, f 32;
#X obj 87 227 outlet~;
#X obj 155 84 inlet;
#X text 202 86 decay;
#X connect 0 0 1 0;
#X connect 1 0 2 0;
#X connect 2 0 4 0;
#X connect 4 0 5 0;
#X connect 4 0 5 1;
#X connect 5 0 6 0;
#X connect 5 0 6 1;
#X connect 6 0 8 0;
#X connect 9 0 1 1;
#X restore 313 231 pd vol_env;
#X text 364 53 chooses the delay time;
#X obj 314 193 del 20;
#X floatatom 355 89 5 0 0 0 - - - 0;
#X obj 377 138 * 5;
#X text 406 139 extrand last decay longer;
#X obj 545 64 t b f;
#X obj 546 34 inlet;
#X text 596 65 decay;
#X connect 0 0 1 0;
#X connect 0 0 6 0;
#X connect 1 0 2 0;
#X connect 3 0 6 1;
#X connect 3 0 7 0;
#X connect 4 0 2 0;
#X connect 6 0 4 0;
#X connect 7 0 1 1;
#X connect 7 0 8 0;
#X connect 8 0 4 1;
#X connect 10 0 8 0;
#X connect 10 1 8 1;
#X connect 11 0 10 0;
#X restore 702 403 pd multi-env;
#X obj 564 594 *~;
#X obj 272 98 inlet;
#X obj 672 309 inlet;
#X obj 905 81 inlet;
#X obj 509 245 + 350;
#X text 960 83 filter;
#X text 671 274 decay;
#X msg 993 507 \$1 500;
#X obj 991 448 inlet;
#X obj 574 651 *~;
#X obj 779 231 loadbang;
#X msg 779 255 10;
#X obj 993 536 line;
#X obj 556 721 outlet~;
#X connect 0 0 2 0;
#X connect 1 0 4 0;
#X connect 2 0 1 0;
#X connect 3 0 4 1;
#X connect 4 0 13 0;
#X connect 5 0 3 0;
#X connect 6 0 3 2;
#X connect 7 0 8 0;
#X connect 7 0 2 1;
#X connect 8 0 1 1;
#X connect 11 0 16 0;
#X connect 12 0 11 0;
#X connect 13 0 17 0;
#X connect 14 0 15 0;
#X connect 15 0 3 1;
#X connect 16 0 13 1;
