#N canvas 2 29 1440 789 12;
#X obj 397 372 osc~;
#X obj 568 460 *~;
#X obj 647 374 osc~;
#X msg 785 285 1 0 \, 0 30;
#X msg 428 334 0.25;
#X msg 678 336 0.25;
#X obj 431 454 *~;
#X msg 371 258 1800 0 \, 1600 1;
#X msg 535 283 1 0 \, 0 20;
#X msg 621 260 1800 0 \, 1600 1;
#X obj 479 645 outlet~;
#X obj 569 102 inlet;
#X obj 563 562 *~;
#X msg 901 374 \$1 500;
#X obj 373 306 line~;
#X obj 507 324 line~;
#X obj 623 308 line~;
#X obj 757 326 line~;
#X obj 901 403 line;
#X obj 903 307 inlet;
#X connect 0 0 6 0;
#X connect 1 0 12 0;
#X connect 2 0 1 0;
#X connect 3 0 17 0;
#X connect 4 0 0 1;
#X connect 5 0 2 1;
#X connect 6 0 12 0;
#X connect 7 0 14 0;
#X connect 8 0 15 0;
#X connect 9 0 16 0;
#X connect 11 0 7 0;
#X connect 11 0 4 0;
#X connect 11 0 8 0;
#X connect 11 0 5 0;
#X connect 11 0 9 0;
#X connect 11 0 3 0;
#X connect 12 0 10 0;
#X connect 13 0 18 0;
#X connect 14 0 0 0;
#X connect 15 0 6 1;
#X connect 16 0 2 0;
#X connect 17 0 1 1;
#X connect 18 0 12 1;
#X connect 19 0 13 0;
