#N canvas 0 28 1440 872 12;
#X obj 77 762 unpack 0 0;
#X obj 427 776 unpack 0 0;
#X obj 774 745 unpack 0 0;
#X obj 199 765 unpack 0 0;
#X obj 858 744 unpack 0 0;
#X obj 1270 759 unpack 0 0;
#X obj 79 661 spigot;
#X obj 133 633 tgl 19 0 empty empty empty 0 -10 0 12 #fcfcfc #000000 #000000 0 1;
#X obj 203 661 spigot;
#X obj 253 634 tgl 19 0 empty empty empty 0 -10 0 12 #fcfcfc #000000 #000000 0 1;
#X obj 427 675 spigot;
#X obj 481 647 tgl 19 0 empty empty empty 0 -10 0 12 #fcfcfc #000000 #000000 0 1;
#X obj 770 690 spigot;
#X obj 824 662 tgl 19 0 empty empty empty 0 -10 0 12 #fcfcfc #000000 #000000 0 1;
#X obj 894 690 spigot;
#X obj 944 663 tgl 19 0 empty empty empty 0 -10 0 12 #fcfcfc #000000 #000000 0 1;
#X obj 1260 673 spigot;
#X obj 1310 646 tgl 19 0 empty empty empty 0 -10 0 12 #fcfcfc #000000 #000000 0 1;
#X obj 41 546 del 5;
#X obj 80 578 gatemode0;
#X obj 208 579 gatemode1;
#X obj 419 588 gatemode0;
#X obj 766 606 gatemode0;
#X obj 896 606 gatemode1;
#X obj 1265 580 gatemode1;
#X obj 208 540 del 5;
#X obj 792 573 del 5;
#X obj 920 573 del 5;
#X obj 443 553 del 5;
#X obj 1292 550 del 5;
#X obj 48 455 r mode_change;
#X obj 214 450 r mode_change;
#X obj 441 466 r mode_change;
#X obj 783 478 r mode_change;
#X obj 949 473 r mode_change;
#X obj 1293 457 r mode_change;
#X obj 82 513 r row_change_ply2;
#X obj 252 511 r row_change_ply2;
#X obj 467 517 r row_change_ply2;
#X obj 795 538 r row_change_ply2;
#X obj 965 536 r row_change_ply2;
#X obj 1306 516 r row_change_ply2;
#X obj 1312 620 r gate4_Ply2;
#X obj 946 637 r gate3_Ply2;
#X obj 826 636 r gate3_Ply2;
#X obj 483 621 r gate2_Ply2;
#X obj 255 608 r gate1_Ply2;
#X obj 135 607 r gate1_Ply2;
#X msg 858 720 200 2000;
#X obj 54 807 s value1_pot2_ply2;
#X obj 206 809 s value2_pot2_ply2;
#X obj 427 822 s value1_pot2_ply2;
#X obj 569 822 s value2_pot2_ply2;
#X obj 771 797 s value1_pot2_ply2;
#X obj 913 796 s value2_pot2_ply2;
#X obj 1155 820 s value1_pot2_ply2;
#X obj 1296 818 s value2_pot2_ply2;
#X obj 705 361 clip 0 1;
#X obj 700 245 *;
#X obj 702 290 +;
#X obj 887 88 t b f;
#X obj 683 125 inlet;
#X obj 708 409 outlet;
#X obj 777 182 -;
#X obj 783 130 f;
#X obj 732 84 r value2_pot2_ply2;
#X obj 883 60 r value1_pot2_ply2;
#X obj 738 322 r value1_pot2_ply2;
#X obj 881 326 r value2_pot2_ply2;
#X msg 79 725 1 2000;
#X msg 198 717 500 6000;
#X msg 430 732 500 6000;
#X text 70 399 kick;
#X text 241 397 snare;
#X text 461 417 snare;
#X text 591 424 cymbal;
#X text 815 447 hithat;
#X text 969 438 clap;
#X text 1144 417 cowbell;
#X text 1308 415 acid;
#X msg 773 720 3000 6000;
#X msg 1270 734 100 7000;
#X text 133 151 Pot 2 Ply 2;
#X connect 0 0 49 0;
#X connect 0 1 50 0;
#X connect 1 0 51 0;
#X connect 1 1 52 0;
#X connect 2 0 53 0;
#X connect 2 1 54 0;
#X connect 3 0 49 0;
#X connect 3 1 50 0;
#X connect 4 0 53 0;
#X connect 4 1 54 0;
#X connect 5 0 55 0;
#X connect 5 1 56 0;
#X connect 6 0 69 0;
#X connect 7 0 6 1;
#X connect 8 0 70 0;
#X connect 9 0 8 1;
#X connect 10 0 71 0;
#X connect 11 0 10 1;
#X connect 12 0 80 0;
#X connect 13 0 12 1;
#X connect 14 0 48 0;
#X connect 15 0 14 1;
#X connect 16 0 81 0;
#X connect 17 0 16 1;
#X connect 18 0 19 0;
#X connect 19 0 6 0;
#X connect 20 0 8 0;
#X connect 21 0 10 0;
#X connect 22 0 12 0;
#X connect 23 0 14 0;
#X connect 24 0 16 0;
#X connect 25 0 20 0;
#X connect 26 0 22 0;
#X connect 27 0 23 0;
#X connect 28 0 21 0;
#X connect 29 0 24 0;
#X connect 30 0 18 0;
#X connect 31 0 25 0;
#X connect 32 0 28 0;
#X connect 33 0 26 0;
#X connect 34 0 27 0;
#X connect 35 0 29 0;
#X connect 36 0 18 0;
#X connect 37 0 25 0;
#X connect 38 0 28 0;
#X connect 39 0 26 0;
#X connect 40 0 27 0;
#X connect 41 0 29 0;
#X connect 42 0 17 0;
#X connect 43 0 15 0;
#X connect 44 0 13 0;
#X connect 45 0 11 0;
#X connect 46 0 9 0;
#X connect 47 0 7 0;
#X connect 48 0 4 0;
#X connect 57 0 62 0;
#X connect 58 0 59 0;
#X connect 59 0 57 0;
#X connect 60 0 64 0;
#X connect 60 1 59 1;
#X connect 60 1 63 1;
#X connect 61 0 58 0;
#X connect 63 0 58 1;
#X connect 64 0 63 0;
#X connect 65 0 64 1;
#X connect 66 0 60 0;
#X connect 67 0 57 1;
#X connect 68 0 57 2;
#X connect 69 0 0 0;
#X connect 70 0 3 0;
#X connect 71 0 1 0;
#X connect 80 0 2 0;
#X connect 81 0 5 0;
