#N canvas 0 28 1440 872 12;
#X obj 75 714 unpack 0 0;
#X obj 425 728 unpack 0 0;
#X obj 772 697 unpack 0 0;
#X obj 1082 716 unpack 0 0;
#X obj 197 717 unpack 0 0;
#X obj 533 725 unpack 0 0;
#X obj 856 696 unpack 0 0;
#X obj 1268 711 unpack 0 0;
#X obj 77 613 spigot;
#X obj 131 585 tgl 19 0 empty empty empty 0 -10 0 12 #fcfcfc #000000 #000000 0 1;
#X obj 201 613 spigot;
#X obj 251 586 tgl 19 0 empty empty empty 0 -10 0 12 #fcfcfc #000000 #000000 0 1;
#X obj 425 627 spigot;
#X obj 479 599 tgl 19 0 empty empty empty 0 -10 0 12 #fcfcfc #000000 #000000 0 1;
#X obj 549 627 spigot;
#X obj 599 600 tgl 19 0 empty empty empty 0 -10 0 12 #fcfcfc #000000 #000000 0 1;
#X obj 768 642 spigot;
#X obj 822 614 tgl 19 0 empty empty empty 0 -10 0 12 #fcfcfc #000000 #000000 0 1;
#X obj 892 642 spigot;
#X obj 942 615 tgl 19 0 empty empty empty 0 -10 0 12 #fcfcfc #000000 #000000 0 1;
#X obj 1081 626 spigot;
#X obj 1135 598 tgl 19 0 empty empty empty 0 -10 0 12 #fcfcfc #000000 #000000 0 1;
#X obj 1258 625 spigot;
#X obj 1308 598 tgl 19 0 empty empty empty 0 -10 0 12 #fcfcfc #000000 #000000 0 1;
#X obj 39 498 del 5;
#X obj 78 530 gatemode0;
#X obj 206 531 gatemode1;
#X obj 417 540 gatemode0;
#X obj 563 546 gatemode1;
#X obj 764 558 gatemode0;
#X obj 894 558 gatemode1;
#X obj 1059 539 gatemode0;
#X obj 1263 532 gatemode1;
#X obj 206 492 del 5;
#X obj 790 525 del 5;
#X obj 918 525 del 5;
#X obj 441 505 del 5;
#X obj 583 506 del 5;
#X obj 1101 504 del 5;
#X obj 1290 502 del 5;
#X obj 46 407 r mode_change;
#X obj 212 402 r mode_change;
#X obj 439 418 r mode_change;
#X obj 578 416 r mode_change;
#X obj 781 430 r mode_change;
#X obj 947 425 r mode_change;
#X obj 1130 409 r mode_change;
#X obj 1291 409 r mode_change;
#X obj 80 465 r row_change_ply2;
#X obj 250 463 r row_change_ply2;
#X obj 465 469 r row_change_ply2;
#X obj 602 461 r row_change_ply2;
#X obj 793 490 r row_change_ply2;
#X obj 963 488 r row_change_ply2;
#X obj 1134 462 r row_change_ply2;
#X obj 1304 468 r row_change_ply2;
#X obj 1310 572 r gate4_Ply2;
#X obj 1150 570 r gate4_Ply2;
#X obj 944 589 r gate3_Ply2;
#X obj 824 588 r gate3_Ply2;
#X obj 601 574 r gate2_Ply2;
#X obj 481 573 r gate2_Ply2;
#X obj 253 560 r gate1_Ply2;
#X obj 133 559 r gate1_Ply2;
#X obj 54 766 s value1_pot1_ply2;
#X obj 204 761 s value2_pot1_ply2;
#X obj 425 774 s value1_pot1_ply2;
#X obj 571 774 s value2_pot1_ply2;
#X obj 716 748 s value1_pot1_ply2;
#X obj 862 748 s value2_pot1_ply2;
#X obj 1088 774 s value1_pot1_ply2;
#X obj 1241 772 s value2_pot1_ply2;
#X obj 717 340 clip 0 1;
#X obj 712 224 *;
#X obj 714 269 +;
#X obj 899 67 t b f;
#X obj 695 104 inlet;
#X obj 720 388 outlet;
#X obj 789 161 -;
#X obj 795 109 f;
#X obj 886 39 r value1_pot1_ply2;
#X obj 725 66 r value2_pot1_ply2;
#X obj 835 269 r value2_pot1_ply2;
#X obj 750 301 r value1_pot1_ply2;
#X msg 77 677 100 300;
#X msg 196 669 150 300;
#X msg 428 684 150 300;
#X msg 1082 691 30 600;
#X text 64 359 kick;
#X text 235 357 snare;
#X text 455 377 snare;
#X text 585 384 cymbal;
#X text 809 407 hithat;
#X text 963 398 clap;
#X text 1138 377 cowbell;
#X text 1302 375 acid;
#X msg 771 672 60 200;
#X msg 856 672 30 80;
#X msg 1268 686 600 1000;
#X msg 533 690 70 500;
#X text 133 151 Pot 1 Ply 2;
#X connect 0 0 64 0;
#X connect 0 1 65 0;
#X connect 1 0 66 0;
#X connect 1 1 67 0;
#X connect 2 0 68 0;
#X connect 2 1 69 0;
#X connect 3 0 70 0;
#X connect 3 1 71 0;
#X connect 4 0 64 0;
#X connect 4 1 65 0;
#X connect 5 0 66 0;
#X connect 5 1 67 0;
#X connect 6 0 68 0;
#X connect 6 1 69 0;
#X connect 7 0 70 0;
#X connect 7 1 71 0;
#X connect 8 0 84 0;
#X connect 9 0 8 1;
#X connect 10 0 85 0;
#X connect 11 0 10 1;
#X connect 12 0 86 0;
#X connect 13 0 12 1;
#X connect 14 0 99 0;
#X connect 15 0 14 1;
#X connect 16 0 96 0;
#X connect 17 0 16 1;
#X connect 18 0 97 0;
#X connect 19 0 18 1;
#X connect 20 0 87 0;
#X connect 21 0 20 1;
#X connect 22 0 98 0;
#X connect 23 0 22 1;
#X connect 24 0 25 0;
#X connect 25 0 8 0;
#X connect 26 0 10 0;
#X connect 27 0 12 0;
#X connect 28 0 14 0;
#X connect 29 0 16 0;
#X connect 30 0 18 0;
#X connect 31 0 20 0;
#X connect 32 0 22 0;
#X connect 33 0 26 0;
#X connect 34 0 29 0;
#X connect 35 0 30 0;
#X connect 36 0 27 0;
#X connect 37 0 28 0;
#X connect 38 0 31 0;
#X connect 39 0 32 0;
#X connect 40 0 24 0;
#X connect 41 0 33 0;
#X connect 42 0 36 0;
#X connect 43 0 37 0;
#X connect 44 0 34 0;
#X connect 45 0 35 0;
#X connect 46 0 38 0;
#X connect 47 0 39 0;
#X connect 48 0 24 0;
#X connect 49 0 33 0;
#X connect 50 0 36 0;
#X connect 51 0 37 0;
#X connect 52 0 34 0;
#X connect 53 0 35 0;
#X connect 54 0 38 0;
#X connect 55 0 39 0;
#X connect 56 0 23 0;
#X connect 57 0 21 0;
#X connect 58 0 19 0;
#X connect 59 0 17 0;
#X connect 60 0 15 0;
#X connect 61 0 13 0;
#X connect 62 0 11 0;
#X connect 63 0 9 0;
#X connect 72 0 77 0;
#X connect 73 0 74 0;
#X connect 74 0 72 0;
#X connect 75 0 79 0;
#X connect 75 1 74 1;
#X connect 75 1 78 1;
#X connect 76 0 73 0;
#X connect 78 0 73 1;
#X connect 79 0 78 0;
#X connect 80 0 75 0;
#X connect 81 0 79 1;
#X connect 82 0 72 2;
#X connect 83 0 72 1;
#X connect 84 0 0 0;
#X connect 85 0 4 0;
#X connect 86 0 1 0;
#X connect 87 0 3 0;
#X connect 96 0 2 0;
#X connect 97 0 6 0;
#X connect 98 0 7 0;
#X connect 99 0 5 0;
