#N canvas 0 28 1440 872 12;
#X obj 75 756 unpack 0 0;
#X obj 425 770 unpack 0 0;
#X obj 772 739 unpack 0 0;
#X obj 1082 758 unpack 0 0;
#X obj 197 759 unpack 0 0;
#X obj 533 767 unpack 0 0;
#X obj 856 738 unpack 0 0;
#X obj 77 655 spigot;
#X obj 131 627 tgl 19 0 empty empty empty 0 -10 0 12 #fcfcfc #000000 #000000 0 1;
#X obj 201 655 spigot;
#X obj 251 628 tgl 19 0 empty empty empty 0 -10 0 12 #fcfcfc #000000 #000000 0 1;
#X obj 425 669 spigot;
#X obj 479 641 tgl 19 0 empty empty empty 0 -10 0 12 #fcfcfc #000000 #000000 0 1;
#X obj 549 669 spigot;
#X obj 599 642 tgl 19 0 empty empty empty 0 -10 0 12 #fcfcfc #000000 #000000 0 1;
#X obj 768 684 spigot;
#X obj 822 656 tgl 19 0 empty empty empty 0 -10 0 12 #fcfcfc #000000 #000000 0 1;
#X obj 892 684 spigot;
#X obj 942 657 tgl 19 0 empty empty empty 0 -10 0 12 #fcfcfc #000000 #000000 0 1;
#X obj 1081 668 spigot;
#X obj 1135 640 tgl 19 0 empty empty empty 0 -10 0 12 #fcfcfc #000000 #000000 0 1;
#X obj 39 540 del 5;
#X obj 78 572 gatemode0;
#X obj 206 573 gatemode1;
#X obj 417 582 gatemode0;
#X obj 563 588 gatemode1;
#X obj 764 600 gatemode0;
#X obj 894 600 gatemode1;
#X obj 1059 581 gatemode0;
#X obj 728 350 clip 0 1;
#X obj 723 234 *;
#X obj 725 279 +;
#X obj 910 77 t b f;
#X obj 706 114 inlet;
#X obj 731 398 outlet;
#X obj 800 171 -;
#X obj 806 119 f;
#X obj 206 534 del 5;
#X obj 790 567 del 5;
#X obj 918 567 del 5;
#X obj 441 547 del 5;
#X obj 583 548 del 5;
#X obj 1101 546 del 5;
#X obj 46 449 r mode_change;
#X obj 212 444 r mode_change;
#X obj 439 460 r mode_change;
#X obj 578 458 r mode_change;
#X obj 781 472 r mode_change;
#X obj 947 467 r mode_change;
#X obj 1130 451 r mode_change;
#X obj 80 507 r row_change_ply1;
#X obj 250 505 r row_change_ply1;
#X obj 465 511 r row_change_ply1;
#X obj 602 503 r row_change_ply1;
#X obj 793 532 r row_change_ply1;
#X obj 963 530 r row_change_ply1;
#X obj 1134 504 r row_change_ply1;
#X obj 133 601 r gate1_Ply1;
#X obj 253 602 r gate1_Ply1;
#X obj 481 615 r gate2_Ply1;
#X obj 601 616 r gate2_Ply1;
#X obj 824 630 r gate3_Ply1;
#X obj 944 631 r gate3_Ply1;
#X obj 1150 612 r gate4_Ply1;
#X obj 26 818 s value1_pot1_ply1;
#X obj 204 803 s value2_pot1_ply1;
#X obj 425 816 s value1_pot1_ply1;
#X obj 570 818 s value2_pot1_ply1;
#X obj 769 791 s value1_pot1_ply1;
#X obj 864 812 s value2_pot1_ply1;
#X obj 1088 816 s value1_pot1_ply1;
#X obj 1241 814 s value2_pot1_ply1;
#X obj 761 311 r value1_pot1_ply1;
#X obj 846 279 r value2_pot1_ply1;
#X obj 736 76 r value2_pot1_ply1;
#X obj 897 49 r value1_pot1_ply1;
#X msg 77 719 100 300;
#X msg 196 711 100 300;
#X msg 428 726 150 300;
#X msg 533 732 30 600;
#X msg 771 714 60 200;
#X msg 856 714 60 200;
#X text 146 399 kick;
#X text 433 416 snare;
#X text 592 421 cowbell;
#X text 874 438 hithat;
#X text 1143 418 clap;
#X text 1339 415 claves;
#X msg 1082 733 30 80;
#X text 133 151 Pot 1 Ply 1;
#X connect 0 0 64 0;
#X connect 0 1 65 0;
#X connect 1 0 66 0;
#X connect 1 1 67 0;
#X connect 2 0 68 0;
#X connect 2 1 69 0;
#X connect 3 0 70 0;
#X connect 3 1 71 0;
#X connect 4 0 64 0;
#X connect 4 1 65 0;
#X connect 5 0 66 0;
#X connect 5 1 67 0;
#X connect 6 0 68 0;
#X connect 6 1 69 0;
#X connect 7 0 76 0;
#X connect 8 0 7 1;
#X connect 9 0 77 0;
#X connect 10 0 9 1;
#X connect 11 0 78 0;
#X connect 12 0 11 1;
#X connect 13 0 79 0;
#X connect 14 0 13 1;
#X connect 15 0 80 0;
#X connect 16 0 15 1;
#X connect 17 0 81 0;
#X connect 18 0 17 1;
#X connect 19 0 88 0;
#X connect 20 0 19 1;
#X connect 21 0 22 0;
#X connect 22 0 7 0;
#X connect 23 0 9 0;
#X connect 24 0 11 0;
#X connect 25 0 13 0;
#X connect 26 0 15 0;
#X connect 27 0 17 0;
#X connect 28 0 19 0;
#X connect 29 0 34 0;
#X connect 30 0 31 0;
#X connect 31 0 29 0;
#X connect 32 0 36 0;
#X connect 32 1 31 1;
#X connect 32 1 35 1;
#X connect 33 0 30 0;
#X connect 35 0 30 1;
#X connect 36 0 35 0;
#X connect 37 0 23 0;
#X connect 38 0 26 0;
#X connect 39 0 27 0;
#X connect 40 0 24 0;
#X connect 41 0 25 0;
#X connect 42 0 28 0;
#X connect 43 0 21 0;
#X connect 44 0 37 0;
#X connect 45 0 40 0;
#X connect 46 0 41 0;
#X connect 47 0 38 0;
#X connect 48 0 39 0;
#X connect 49 0 42 0;
#X connect 50 0 21 0;
#X connect 51 0 37 0;
#X connect 52 0 40 0;
#X connect 53 0 41 0;
#X connect 54 0 38 0;
#X connect 55 0 39 0;
#X connect 56 0 42 0;
#X connect 57 0 8 0;
#X connect 58 0 10 0;
#X connect 59 0 12 0;
#X connect 60 0 14 0;
#X connect 61 0 16 0;
#X connect 62 0 18 0;
#X connect 63 0 20 0;
#X connect 72 0 29 1;
#X connect 73 0 29 2;
#X connect 74 0 36 1;
#X connect 75 0 32 0;
#X connect 76 0 0 0;
#X connect 77 0 4 0;
#X connect 78 0 1 0;
#X connect 79 0 5 0;
#X connect 80 0 2 0;
#X connect 81 0 6 0;
#X connect 88 0 3 0;
