#N canvas 0 28 1440 872 12;
#X obj 108 731 unpack 0 0;
#X obj 436 729 unpack 0 0;
#X obj 774 678 unpack 0 0;
#X obj 1115 712 unpack 0 0;
#X obj 230 734 unpack 0 0;
#X obj 858 677 unpack 0 0;
#X obj 110 630 spigot;
#X obj 164 602 tgl 19 0 empty empty empty 0 -10 0 12 #fcfcfc #000000 #000000 0 1;
#X obj 234 630 spigot;
#X obj 284 603 tgl 19 0 empty empty empty 0 -10 0 12 #fcfcfc #000000 #000000 0 1;
#X obj 436 628 spigot;
#X obj 490 600 tgl 19 0 empty empty empty 0 -10 0 12 #fcfcfc #000000 #000000 0 1;
#X obj 770 623 spigot;
#X obj 824 595 tgl 19 0 empty empty empty 0 -10 0 12 #fcfcfc #000000 #000000 0 1;
#X obj 894 623 spigot;
#X obj 944 596 tgl 19 0 empty empty empty 0 -10 0 12 #fcfcfc #000000 #000000 0 1;
#X obj 1114 622 spigot;
#X obj 1168 594 tgl 19 0 empty empty empty 0 -10 0 12 #fcfcfc #000000 #000000 0 1;
#X obj 72 515 del 5;
#X obj 111 547 gatemode0;
#X obj 239 548 gatemode1;
#X obj 428 541 gatemode0;
#X obj 766 539 gatemode0;
#X obj 896 539 gatemode1;
#X obj 1092 535 gatemode0;
#X obj 573 311 clip 0 1;
#X obj 568 195 *;
#X obj 570 240 +;
#X obj 755 38 t b f;
#X obj 551 75 inlet;
#X obj 576 359 outlet;
#X obj 645 132 -;
#X obj 651 80 f;
#X obj 239 509 del 5;
#X obj 792 506 del 5;
#X obj 920 506 del 5;
#X obj 452 506 del 5;
#X obj 1134 500 del 5;
#X obj 79 424 r mode_change;
#X obj 245 419 r mode_change;
#X obj 450 419 r mode_change;
#X obj 783 411 r mode_change;
#X obj 949 406 r mode_change;
#X obj 1154 405 r mode_change;
#X obj 166 576 r gate1_Ply1;
#X obj 286 577 r gate1_Ply1;
#X obj 492 574 r gate2_Ply1;
#X obj 826 569 r gate3_Ply1;
#X obj 946 570 r gate3_Ply1;
#X obj 1170 568 r gate4_Ply1;
#X obj 113 482 r row_change_ply1;
#X obj 283 480 r row_change_ply1;
#X obj 476 470 r row_change_ply1;
#X obj 795 471 r row_change_ply1;
#X obj 965 469 r row_change_ply1;
#X obj 1151 458 r row_change_ply1;
#X msg 1115 687 200 2000;
#X obj 66 783 s value1_pot2_ply1;
#X obj 237 778 s value2_pot2_ply1;
#X obj 436 775 s value1_pot2_ply1;
#X obj 568 775 s value2_pot2_ply1;
#X obj 771 730 s value1_pot2_ply1;
#X obj 911 731 s value2_pot2_ply1;
#X obj 1121 770 s value1_pot2_ply1;
#X obj 1225 747 s value2_pot2_ply1;
#X obj 606 272 r value1_pot2_ply1;
#X obj 749 276 r value2_pot2_ply1;
#X obj 600 34 r value2_pot2_ply1;
#X obj 751 10 r value1_pot2_ply1;
#X msg 110 694 1 2000;
#X msg 247 686 1 2000;
#X msg 448 685 500 6000;
#X text 193 374 kick;
#X text 480 391 snare;
#X text 639 396 cowbell;
#X text 881 372 hithat;
#X text 1190 363 clap;
#X text 1379 371 claves;
#X msg 773 653 3000 6000;
#X msg 858 653 3000 6000;
#X text 133 151 Pot 2 Ply 1;
#X connect 0 0 57 0;
#X connect 0 1 58 0;
#X connect 1 0 59 0;
#X connect 1 1 60 0;
#X connect 2 0 61 0;
#X connect 2 1 62 0;
#X connect 3 0 63 0;
#X connect 3 1 64 0;
#X connect 4 0 57 0;
#X connect 4 1 58 0;
#X connect 5 0 61 0;
#X connect 5 1 62 0;
#X connect 6 0 69 0;
#X connect 7 0 6 1;
#X connect 8 0 70 0;
#X connect 9 0 8 1;
#X connect 10 0 71 0;
#X connect 11 0 10 1;
#X connect 12 0 78 0;
#X connect 13 0 12 1;
#X connect 14 0 79 0;
#X connect 15 0 14 1;
#X connect 16 0 56 0;
#X connect 17 0 16 1;
#X connect 18 0 19 0;
#X connect 19 0 6 0;
#X connect 20 0 8 0;
#X connect 21 0 10 0;
#X connect 22 0 12 0;
#X connect 23 0 14 0;
#X connect 24 0 16 0;
#X connect 25 0 30 0;
#X connect 26 0 27 0;
#X connect 27 0 25 0;
#X connect 28 0 32 0;
#X connect 28 1 27 1;
#X connect 28 1 31 1;
#X connect 29 0 26 0;
#X connect 31 0 26 1;
#X connect 32 0 31 0;
#X connect 33 0 20 0;
#X connect 34 0 22 0;
#X connect 35 0 23 0;
#X connect 36 0 21 0;
#X connect 37 0 24 0;
#X connect 38 0 18 0;
#X connect 39 0 33 0;
#X connect 40 0 36 0;
#X connect 41 0 34 0;
#X connect 42 0 35 0;
#X connect 43 0 37 0;
#X connect 44 0 7 0;
#X connect 45 0 9 0;
#X connect 46 0 11 0;
#X connect 47 0 13 0;
#X connect 48 0 15 0;
#X connect 49 0 17 0;
#X connect 50 0 18 0;
#X connect 51 0 33 0;
#X connect 52 0 36 0;
#X connect 53 0 34 0;
#X connect 54 0 35 0;
#X connect 55 0 37 0;
#X connect 56 0 3 0;
#X connect 65 0 25 1;
#X connect 66 0 25 2;
#X connect 67 0 32 1;
#X connect 68 0 28 0;
#X connect 69 0 0 0;
#X connect 70 0 4 0;
#X connect 71 0 1 0;
#X connect 78 0 2 0;
#X connect 79 0 5 0;
