#N canvas 3 26 1440 789 12;
#X msg 486 275 550;
#X obj 486 299 phasor~;
#X obj 486 369 *~ 0.5;
#X obj 575 297 phasor~;
#X obj 574 374 *~ 0.5;
#X msg 575 273 830;
#X obj 694 301 vline~;
#X obj 825 302 vline~;
#X obj 608 471 *~;
#X msg 694 277 1 4 \, 0 \$1 4;
#X msg 825 278 0.5 4 \, 0 \$1 4;
#X obj 698 202 f 250;
#X obj 823 246 + 350;
#X obj 539 75 inlet;
#X obj 722 107 inlet;
#X obj 724 576 outlet~;
#X msg 990 316 \$1 500;
#X obj 991 284 inlet;
#X obj 727 537 *~;
#X obj 990 345 line;
#X obj 506 196 loadbang;
#X obj 486 339 clip~ -1 1;
#X obj 576 331 clip~ -1 1;
#X text 539 48 metro;
#X text 717 81 decay;
#X text 994 259 vol;
#X connect 0 0 1 0;
#X connect 1 0 21 0;
#X connect 2 0 8 0;
#X connect 3 0 22 0;
#X connect 4 0 8 0;
#X connect 5 0 3 0;
#X connect 6 0 8 1;
#X connect 7 0 8 1;
#X connect 8 0 18 0;
#X connect 9 0 6 0;
#X connect 10 0 7 0;
#X connect 11 0 9 0;
#X connect 11 0 12 0;
#X connect 12 0 10 0;
#X connect 13 0 11 0;
#X connect 14 0 11 1;
#X connect 16 0 19 0;
#X connect 17 0 16 0;
#X connect 18 0 15 0;
#X connect 19 0 18 1;
#X connect 20 0 0 0;
#X connect 20 0 5 0;
#X connect 21 0 2 0;
#X connect 22 0 4 0;
