#N canvas 0 28 1440 789 12;
#X obj 564 248 noise~;
#N canvas 0 25 1440 789 filters 0;
#X obj 72 44 inlet~;
#X obj 147 205 outlet~;
#X obj 145 91 biquad~ 0.638282 -0.176456 0.134544 0.269087 0.134544;
#X obj 147 117 biquad~ 0.88843 -0.568944 0.614344 -1.22869 0.614344;
#X obj 148 145 biquad~ 0.88843 -0.568944 0.614344 -1.22869 0.614344;
#X connect 0 0 2 0;
#X connect 2 0 3 0;
#X connect 3 0 4 0;
#X connect 4 0 1 0;
#X restore 649 314 pd filters;
#X obj 656 432 *~;
#N canvas 0 28 1440 872 vol_env 0;
#X obj 167 124 vline~;
#X obj 166 73 f 250;
#X obj 166 42 inlet;
#X obj 225 39 inlet;
#X obj 168 161 outlet~;
#X msg 167 100 1 2 \, 0.4 \$1 2 \, 0 \$1 \$1;
#X connect 0 0 4 0;
#X connect 1 0 5 0;
#X connect 2 0 1 0;
#X connect 3 0 1 1;
#X connect 5 0 0 0;
#X restore 804 401 pd vol_env;
#X obj 588 132 inlet;
#X obj 864 222 inlet;
#X text 871 197 decay/duration;
#X obj 733 622 outlet~;
#X obj 691 222 clip~ -1 1;
#X obj 690 192 phasor~ 1500;
#X msg 1143 476 \$1 500;
#X obj 1143 505 line;
#X obj 1139 451 inlet;
#X text 1142 420 vol;
#X obj 742 547 *~;
#X connect 0 0 1 0;
#X connect 1 0 2 0;
#X connect 2 0 14 0;
#X connect 3 0 2 1;
#X connect 4 0 3 0;
#X connect 5 0 3 1;
#X connect 8 0 1 0;
#X connect 9 0 8 0;
#X connect 10 0 11 0;
#X connect 11 0 14 1;
#X connect 12 0 10 0;
#X connect 14 0 7 0;
