#N canvas 9 26 1440 789 12;
#X obj 550 389 bp~ 10000 20;
#X obj 553 421 hip~ 7000;
#X obj 553 453 hip~ 7000;
#X obj 772 292 vline~;
#X obj 554 488 hip~ 7000;
#X obj 554 520 hip~ 7000;
#X obj 816 587 *~;
#X obj 1019 283 inlet;
#X msg 772 268 1 2 \, 0 \$1 2;
#X obj 814 171 inlet;
#X obj 710 155 inlet;
#X obj 773 221 f 90;
#X text 859 171 decay;
#X obj 814 554 *~;
#X obj 994 381 / 1000;
#X msg 996 435 \$1 2;
#X obj 993 409 * 1.5;
#X obj 995 462 line;
#X obj 823 623 *~;
#X msg 1143 476 \$1 500;
#X obj 1143 505 line;
#X obj 1139 451 inlet;
#X text 1015 260 filter;
#X obj 874 701 outlet~;
#X obj 533 299 noise~;
#X obj 416 304 osc~ 400;
#X text 1142 420 vol;
#X connect 0 0 1 0;
#X connect 1 0 2 0;
#X connect 2 0 4 0;
#X connect 3 0 6 1;
#X connect 4 0 5 0;
#X connect 5 0 13 0;
#X connect 6 0 18 0;
#X connect 7 0 1 1;
#X connect 7 0 2 1;
#X connect 7 0 4 1;
#X connect 7 0 5 1;
#X connect 7 0 14 0;
#X connect 8 0 3 0;
#X connect 9 0 11 1;
#X connect 10 0 11 0;
#X connect 11 0 8 0;
#X connect 13 0 6 0;
#X connect 14 0 16 0;
#X connect 15 0 17 0;
#X connect 16 0 15 0;
#X connect 17 0 13 1;
#X connect 18 0 23 0;
#X connect 19 0 20 0;
#X connect 20 0 18 1;
#X connect 21 0 19 0;
#X connect 24 0 0 0;
#X connect 25 0 0 0;
