#N canvas 0 25 1440 789 12;
#X msg 941 431 \$1 500;
#X obj 478 656 *~;
#X obj 597 197 f 500;
#N canvas 0 0 1440 872 vol_env 0;
#X obj 329 259 vline~;
#X obj 329 290 *~;
#X msg 329 222 0.5 \, 1 5 \, 0.5 60 5 \, 0 \$1 65;
#X obj 329 332 outlet~;
#X obj 327 182 inlet;
#X text 402 201 goes immideatly to volume 0.5;
#X connect 0 0 1 0;
#X connect 0 0 1 1;
#X connect 1 0 3 0;
#X connect 2 0 0 0;
#X connect 4 0 2 0;
#X restore 303 368 pd vol_env;
#X text 402 360 controle the scaling of the pitch envolope, f 22;
#X obj 502 549 noise~;
#X obj 797 210 inlet;
#X obj 641 130 inlet;
#X obj 562 131 inlet;
#X obj 587 517 *~ 100;
#X obj 588 545 clip~ -1 1;
#X obj 585 492 osc~ 55;
#X obj 566 592 bp~ 100 0.5;
#X obj 481 708 *~;
#X obj 941 460 line;
#X obj 941 378 inlet;
#N canvas 0 25 1440 789 pitch_env 0;
#X obj 87 246 outlet~;
#X obj 86 35 inlet;
#X obj 102 128 vline~;
#X obj 102 159 *~;
#X msg 102 91 1 \, 0.5 5 \, 0 \$1 5;
#X connect 1 0 4 0;
#X connect 2 0 3 0;
#X connect 2 0 3 1;
#X connect 3 0 0 0;
#X connect 4 0 2 0;
#X restore 597 260 pd pitch_env;
#X obj 583 366 *~ 1;
#X text 556 100 metro;
#X text 637 100 decay;
#X text 793 178 freq;
#X text 937 340 vol;
#X obj 478 746 outlet~;
#X connect 0 0 14 0;
#X connect 1 0 13 0;
#X connect 2 0 16 0;
#X connect 2 0 3 0;
#X connect 3 0 1 0;
#X connect 5 0 12 0;
#X connect 6 0 17 1;
#X connect 7 0 2 1;
#X connect 8 0 2 0;
#X connect 9 0 10 0;
#X connect 10 0 12 0;
#X connect 11 0 9 0;
#X connect 12 0 1 1;
#X connect 13 0 22 0;
#X connect 14 0 13 1;
#X connect 15 0 0 0;
#X connect 16 0 17 0;
#X connect 17 0 11 0;
