#N canvas 7 28 1440 789 12;
#X obj 520 265 noise~;
#X obj 505 404 *~;
#X obj 551 182 f 250;
#N canvas 0 28 1440 872 vol_env 0;
#X obj 140 151 vline~;
#X msg 140 111 1 0.5 \, 0 \$1 0.5;
#X obj 141 183 *~;
#X obj 144 66 inlet;
#X obj 142 242 outlet~;
#X connect 0 0 2 0;
#X connect 0 0 2 1;
#X connect 1 0 0 0;
#X connect 2 0 4 0;
#X connect 3 0 1 0;
#X restore 428 217 pd vol_env;
#X obj 792 386 inlet;
#X obj 584 74 inlet;
#X obj 406 51 inlet;
#X obj 558 604 bp~ 7000 3;
#X text 587 45 decay;
#X text 854 387 filter;
#X msg 986 589 \$1 500;
#X obj 752 695 *~;
#X obj 986 618 line;
#X obj 1022 526 inlet;
#X obj 207 327 osc~ 400;
#X text 69 330 carrier operator;
#X obj 173 235 *~ 30;
#X obj 369 441 *~;
#X obj 385 366 *~;
#X obj 174 277 +~ 50;
#X obj 172 202 osc~ 50;
#X text 418 367 decay;
#X obj 519 304 hip~ 1000;
#X obj 757 730 outlet~;
#X text 1078 527 vol;
#X text 462 55 metro;
#X connect 0 0 22 0;
#X connect 1 0 7 0;
#X connect 2 0 3 0;
#X connect 3 0 18 0;
#X connect 3 0 18 1;
#X connect 3 0 1 1;
#X connect 4 0 7 1;
#X connect 5 0 2 1;
#X connect 6 0 2 0;
#X connect 7 0 11 0;
#X connect 10 0 12 0;
#X connect 11 0 23 0;
#X connect 12 0 11 1;
#X connect 13 0 10 0;
#X connect 14 0 17 0;
#X connect 16 0 19 0;
#X connect 17 0 7 0;
#X connect 18 0 17 1;
#X connect 19 0 14 0;
#X connect 20 0 16 0;
#X connect 22 0 1 0;
