#N canvas 0 28 1440 872 12;
#X obj 356 370 change;
#X obj 356 405 route 1 0;
#X msg 346 448 1;
#X msg 381 448 0;
#X obj 352 302 inlet;
#X obj 362 498 outlet;
#X obj 356 345 > 0.005;
#X connect 0 0 1 0;
#X connect 1 0 2 0;
#X connect 1 1 3 0;
#X connect 2 0 5 0;
#X connect 3 0 5 0;
#X connect 4 0 6 0;
#X connect 6 0 0 0;
